;TYPE=PLATED
;Layer: PTH_Through_Via
;EasyEDA Pro v3.2.109, 2026-04-05 01:04:12
;Gerber Generator version 0.3
M48
METRIC,LZ,0000.00000
;Hole size 1 = 0.30500 METRIC
T01C0.30500
;Hole size 2 = 2.50000 METRIC
T02C2.50000
%
G05
G90
T01
X6.87534Y-39.97695
X2.1501Y-34.8517
X-12.75062Y-42.67708
X-20.35099Y-32.55159
X-19.40095Y2.50012
X-17.12584Y25.77626
X-5.98487Y41.7768
X18.20089Y17.67586
X13.97Y14.37627
X20.70101Y4.50022
X20.70101Y-3.22251
X20.60101Y-15.85077
X21.55105Y-35.57674
X14.00068Y-39.52693
X-5.8207Y-34.43677
X7.05034Y-29.77645
X6.2003Y-2.95014
X-21.07603Y-13.67567
X-19.82597Y36.9518
X20.476Y36.47678
X1.27506Y-2.77514
X-9.87548Y12.67562
X0.0Y33.97666
X19.20094Y29.00142
X-12.60061Y36.45178
X9.04538Y4.80023
X9.73529Y3.77518
X10.51433Y-36.97677
X10.50051Y0.20328
X-1.38489Y-15.02996
X-0.38484Y-15.04456
X0.61521Y-15.04456
X1.61526Y-15.01956
X-1.38489Y-16.02975
X-0.38484Y-16.02975
X0.61521Y-16.02975
X1.61526Y-16.02975
X-1.38489Y-17.02953
X-0.38484Y-17.02953
X0.61521Y-17.02953
X1.61526Y-17.02953
X-1.38489Y-18.02932
X-0.38484Y-18.02932
X0.61521Y-18.02932
X1.61526Y-18.02932
X2.61526Y-15.01536
X-1.38492Y-19.02911
X-0.38488Y-19.02911
X0.61515Y-19.02911
X1.61519Y-19.02911
X2.61522Y-19.02911
X2.61526Y-16.02975
X2.61526Y-17.02953
X2.61526Y-18.02932
X0.0Y39.09995
X3.81Y39.09995
T02
X-6.36Y12.23842
X6.34Y12.23842
M30