;TYPE=PLATED
;Layer: PTH_Through
;EasyEDA Pro v3.2.109, 2026-04-05 01:04:12
;Gerber Generator version 0.3
M48
METRIC,LZ,0000.00000
;Hole size 1 = 0.30500 METRIC
T01C0.30500
;Hole size 2 = 0.70002 METRIC
T02C0.70002
;Hole size 3 = 0.90002 METRIC
T03C0.90002
;Hole size 4 = 0.91440 METRIC
T04C0.91440
;Hole size 5 = 1.00000 METRIC
T05C1.00000
;Hole size 6 = 1.02001 METRIC
T06C1.02001
;Hole size 7 = 1.04999 METRIC
T07C1.04999
;Hole size 8 = 1.05000 METRIC
T08C1.05000
;Hole size 9 = 1.10002 METRIC
T09C1.10002
;Hole size 10 = 2.50000 METRIC
T10C2.50000
%
G05
G90
T01
X6.87534Y-39.97695
X2.1501Y-34.8517
X-12.75062Y-42.67708
X-20.35099Y-32.55159
X-19.40095Y2.50012
X-17.12584Y25.77626
X-5.98487Y41.7768
X18.20089Y17.67586
X13.97Y14.37627
X20.70101Y4.50022
X20.70101Y-3.22251
X20.60101Y-15.85077
X21.55105Y-35.57674
X14.00068Y-39.52693
X-5.8207Y-34.43677
X7.05034Y-29.77645
X6.2003Y-2.95014
X-21.07603Y-13.67567
X-19.82597Y36.9518
X20.476Y36.47678
X1.27506Y-2.77514
X-9.87548Y12.67562
X0.0Y33.97666
X19.20094Y29.00142
X-12.60061Y36.45178
X9.04538Y4.80023
X9.73529Y3.77518
X10.51433Y-36.97677
X10.50051Y0.20328
X-1.38489Y-15.02996
X-0.38484Y-15.04456
X0.61521Y-15.04456
X1.61526Y-15.01956
X-1.38489Y-16.02975
X-0.38484Y-16.02975
X0.61521Y-16.02975
X1.61526Y-16.02975
X-1.38489Y-17.02953
X-0.38484Y-17.02953
X0.61521Y-17.02953
X1.61526Y-17.02953
X-1.38489Y-18.02932
X-0.38484Y-18.02932
X0.61521Y-18.02932
X1.61526Y-18.02932
X2.61526Y-15.01536
X-1.38492Y-19.02911
X-0.38488Y-19.02911
X0.61515Y-19.02911
X1.61519Y-19.02911
X2.61522Y-19.02911
X2.61526Y-16.02975
X2.61526Y-17.02953
X2.61526Y-18.02932
X0.0Y39.09995
X3.81Y39.09995
T02
X-11.57558Y15.40075
X-12.82559Y15.40078
T03
X19.37597Y-24.30139G85X19.87594Y-24.30139
X19.37597Y-32.30137G85X19.87594Y-32.30137
T04
X-7.63Y-1.73158
X-5.09Y-1.73158
X-2.55Y-1.73158
X-0.01Y-1.73158
X2.53Y-1.73158
X5.07Y-1.73158
X7.61Y-1.73158
X19.62596Y-30.30138
X19.62596Y-28.30138
X19.62596Y-26.30139
T05
X-19.29976Y7.48122
X-19.29976Y4.38242
X-21.25048Y5.93182
X19.52498Y-17.47487
X19.52498Y-20.47487
X21.37499Y-18.97487
X19.52498Y2.72518
X19.52498Y-0.27481
X21.37499Y1.22519
X19.52498Y-4.77518
X19.52498Y-7.77518
X21.37499Y-6.27518
T06
X-3.82Y-39.51677
X-3.82Y-36.97677
X-3.82Y-34.43677
X3.8Y-34.43677
X3.8Y-36.97677
X3.8Y-39.51677
T07
X-15.24Y12.54981
X-12.7Y12.54981
X-15.24Y10.00981
X-12.7Y10.00981
X-15.24Y7.46981
X-12.7Y7.46981
X-15.24Y4.92981
X-12.7Y4.92981
X-15.24Y2.38981
X-12.7Y2.38981
X-15.24Y-0.15019
X-12.7Y-0.15019
X-15.24Y-2.69019
X-12.7Y-2.69019
X-15.24Y-5.23019
X-12.7Y-5.23019
X-15.24Y-7.77019
X-12.7Y-7.77019
X-15.24Y-10.31019
X-12.7Y-10.31019
X-15.24Y-12.85019
X-12.7Y-12.85019
X-15.24Y-15.39019
X-12.7Y-15.39019
X-15.24Y-17.93019
X-12.7Y-17.93019
X-15.24Y-20.47019
X-12.7Y-20.47019
X-15.24Y-23.01019
X-12.7Y-23.01019
X-15.24Y-25.55019
X-12.7Y-25.55019
X-15.24Y-28.09019
X-12.7Y-28.09019
X-15.24Y-30.63019
X-12.7Y-30.63019
X-15.24Y-33.17019
X-12.7Y-33.17019
X-15.24Y-35.71019
X-12.7Y-35.71019
X-15.24Y-38.25019
X-12.7Y-38.25019
X-15.24Y-40.79019
X-12.7Y-40.79019
X15.24Y-40.79019
X12.7Y-40.79019
X15.24Y-38.25019
X12.7Y-38.25019
X15.24Y-35.71019
X12.7Y-35.71019
X15.24Y-33.17019
X12.7Y-33.17019
X15.24Y-30.63019
X12.7Y-30.63019
X15.24Y-28.09019
X12.7Y-28.09019
X15.24Y-25.55019
X12.7Y-25.55019
X15.24Y-23.01019
X12.7Y-23.01019
X15.24Y-20.47019
X12.7Y-20.47019
X15.24Y-17.93019
X12.7Y-17.93019
X15.24Y-15.39019
X12.7Y-15.39019
X15.24Y-12.85019
X12.7Y-12.85019
X15.24Y-10.31019
X12.7Y-10.31019
X15.24Y-7.77019
X12.7Y-7.77019
X15.24Y-5.23019
X12.7Y-5.23019
X15.24Y-2.69019
X12.7Y-2.69019
X15.24Y-0.15019
X12.7Y-0.15019
X15.24Y2.38981
X12.7Y2.38981
X15.24Y4.92981
X12.7Y4.92981
X15.24Y7.46981
X12.7Y7.46981
X15.24Y10.00981
X12.7Y10.00981
X15.24Y12.54981
X12.7Y12.54981
X-3.81Y84.52912
X-1.27Y84.52912
X1.27Y84.52912
X3.81Y84.52912
T08
X5.70028Y-35.45173
X5.70028Y-38.77689
X-20.4Y-36.977
X-20.4Y-34.437
X20.4Y-36.97677
X20.4Y-34.437
X-20.4Y-16.70081
X-8.25Y-27.57204
X-5.71Y-27.57204
X-3.17Y-27.57204
X-0.63Y-27.57204
X1.91Y-27.57204
X4.45Y-27.57204
X-8.25Y-6.672
X1.91Y-6.672
X-0.63Y-6.672
X-3.17Y-6.672
X-5.71Y-6.672
X4.45Y-6.672
T09
X20.4Y17.64496
X20.4Y15.10496
X20.4Y12.56496
X20.4Y10.02496
X-3.81Y41.7768
X-1.27Y41.7768
X1.27Y41.7768
X3.81Y41.7768
X-1.788Y11.22242
X1.768Y11.22242
X-19.2Y26.19
X-19.2Y28.73
X-19.2Y31.27
X-19.2Y33.81
T10
X-6.36Y12.23842
X6.34Y12.23842
M30