G04 Layer: TopSilkscreenLayer*
G04 EasyEDA Pro v3.2.109, 2026-04-05 01:04:11*
G04 Gerber Generator version 0.3*
G04 Scale: 100 percent, Rotated: No, Reflected: No*
G04 Dimensions in millimeters*
G04 Leading zeros omitted, absolute positions, 4 integers and 5 decimals*
G04 Generated by one-click*
%FSLAX45Y45*%
%MOMM*%
%ADD10C,0.15*%
%ADD11C,0.16*%
%ADD12C,0.2*%
%ADD13C,0.153*%
%ADD14C,0.1524*%
%ADD15C,0.2032*%
%ADD16C,0.254*%
%ADD17C,0.1046*%
%ADD18C,0.1*%
%ADD19C,1.00508*%
G75*


G04 Text Start*
G54D10*
G01X731530Y-3523762D02*
G01X731530Y-3571514D01*
G01X707654Y-3547638D02*
G01X755406Y-3547638D01*
G01X815096Y-3515888D02*
G01X788426Y-3515888D01*
G01X785886Y-3539764D01*
G01X788426Y-3536970D01*
G01X796554Y-3534430D01*
G01X804428Y-3534430D01*
G01X812302Y-3536970D01*
G01X817636Y-3542304D01*
G01X820430Y-3550432D01*
G01X820430Y-3555766D01*
G01X817636Y-3563640D01*
G01X812302Y-3568974D01*
G01X804428Y-3571514D01*
G01X796554Y-3571514D01*
G01X788426Y-3568974D01*
G01X785886Y-3566180D01*
G01X783092Y-3560846D01*
G01X848116Y-3515888D02*
G01X869452Y-3571514D01*
G01X890788Y-3515888D02*
G01X869452Y-3571514D01*
G54D11*
G01X757145Y-3859886D02*
G01X754097Y-3853536D01*
G01X747493Y-3846932D01*
G01X740889Y-3843630D01*
G01X727935Y-3843630D01*
G01X721585Y-3846932D01*
G01X714981Y-3853536D01*
G01X711679Y-3859886D01*
G01X708377Y-3869792D01*
G01X708377Y-3886048D01*
G01X711679Y-3895700D01*
G01X714981Y-3902304D01*
G01X721585Y-3908654D01*
G01X727935Y-3911956D01*
G01X740889Y-3911956D01*
G01X747493Y-3908654D01*
G01X754097Y-3902304D01*
G01X757145Y-3895700D01*
G01X757145Y-3886048D01*
G01X740889Y-3886048D02*
G01X757145Y-3886048D01*
G01X788641Y-3843630D02*
G01X788641Y-3911956D01*
G01X788641Y-3843630D02*
G01X834361Y-3911956D01*
G01X834361Y-3843630D02*
G01X834361Y-3911956D01*
G01X865857Y-3843630D02*
G01X865857Y-3911956D01*
G01X865857Y-3843630D02*
G01X888717Y-3843630D01*
G01X898369Y-3846932D01*
G01X904973Y-3853536D01*
G01X908275Y-3859886D01*
G01X911577Y-3869792D01*
G01X911577Y-3886048D01*
G01X908275Y-3895700D01*
G01X904973Y-3902304D01*
G01X898369Y-3908654D01*
G01X888717Y-3911956D01*
G01X865857Y-3911956D01*
G54D12*
G01X-291195Y2910616D02*
G01X-302371Y2921792D01*
G01X-319135Y2927380D01*
G01X-341741Y2927380D01*
G01X-358505Y2921792D01*
G01X-369935Y2910616D01*
G01X-369935Y2899440D01*
G01X-364093Y2888010D01*
G01X-358505Y2882422D01*
G01X-347329Y2876834D01*
G01X-313547Y2865658D01*
G01X-302371Y2860070D01*
G01X-296783Y2854482D01*
G01X-291195Y2843052D01*
G01X-291195Y2826288D01*
G01X-302371Y2815112D01*
G01X-319135Y2809270D01*
G01X-341741Y2809270D01*
G01X-358505Y2815112D01*
G01X-369935Y2826288D01*
G01X-244205Y2888010D02*
G01X-244205Y2769900D01*
G01X-244205Y2871246D02*
G01X-233029Y2882422D01*
G01X-221599Y2888010D01*
G01X-204835Y2888010D01*
G01X-193659Y2882422D01*
G01X-182229Y2871246D01*
G01X-176641Y2854482D01*
G01X-176641Y2843052D01*
G01X-182229Y2826288D01*
G01X-193659Y2815112D01*
G01X-204835Y2809270D01*
G01X-221599Y2809270D01*
G01X-233029Y2815112D01*
G01X-244205Y2826288D01*
G01X-129651Y2854482D02*
G01X-62087Y2854482D01*
G01X-62087Y2865658D01*
G01X-67675Y2876834D01*
G01X-73517Y2882422D01*
G01X-84693Y2888010D01*
G01X-101457Y2888010D01*
G01X-112887Y2882422D01*
G01X-124063Y2871246D01*
G01X-129651Y2854482D01*
G01X-129651Y2843052D01*
G01X-124063Y2826288D01*
G01X-112887Y2815112D01*
G01X-101457Y2809270D01*
G01X-84693Y2809270D01*
G01X-73517Y2815112D01*
G01X-62087Y2826288D01*
G01X52467Y2888010D02*
G01X52467Y2809270D01*
G01X52467Y2871246D02*
G01X41037Y2882422D01*
G01X29861Y2888010D01*
G01X13097Y2888010D01*
G01X1667Y2882422D01*
G01X-9509Y2871246D01*
G01X-15097Y2854482D01*
G01X-15097Y2843052D01*
G01X-9509Y2826288D01*
G01X1667Y2815112D01*
G01X13097Y2809270D01*
G01X29861Y2809270D01*
G01X41037Y2815112D01*
G01X52467Y2826288D01*
G01X99457Y2927380D02*
G01X99457Y2809270D01*
G01X155591Y2888010D02*
G01X99457Y2831876D01*
G01X122063Y2854482D02*
G01X161433Y2809270D01*
G01X208423Y2854482D02*
G01X275987Y2854482D01*
G01X275987Y2865658D01*
G01X270399Y2876834D01*
G01X264557Y2882422D01*
G01X253381Y2888010D01*
G01X236617Y2888010D01*
G01X225187Y2882422D01*
G01X214011Y2871246D01*
G01X208423Y2854482D01*
G01X208423Y2843052D01*
G01X214011Y2826288D01*
G01X225187Y2815112D01*
G01X236617Y2809270D01*
G01X253381Y2809270D01*
G01X264557Y2815112D01*
G01X275987Y2826288D01*
G01X322977Y2888010D02*
G01X322977Y2809270D01*
G01X322977Y2854482D02*
G01X328565Y2871246D01*
G01X339741Y2882422D01*
G01X351171Y2888010D01*
G01X367935Y2888010D01*
G36*
G01X-168727Y2541486D02*
G01X-168727Y2546259D01*
G01X-169182Y2551714D01*
G01X-170034Y2552225D01*
G01X-171682Y2552395D01*
G01X-174409Y2552623D01*
G01X-177137Y2553077D01*
G01X-180773Y2553759D01*
G01X-183727Y2554668D01*
G01X-186000Y2555577D01*
G01X-188046Y2556486D01*
G01X-189864Y2557395D01*
G01X-191682Y2558532D01*
G01X-194864Y2560805D01*
G01X-196455Y2562168D01*
G01X-198727Y2564441D01*
G01X-200091Y2566259D01*
G01X-201682Y2568532D01*
G01X-202818Y2570123D01*
G01X-203727Y2571714D01*
G01X-204864Y2573759D01*
G01X-205773Y2575577D01*
G01X-206455Y2577395D01*
G01X-207136Y2579668D01*
G01X-207591Y2581714D01*
G01X-208046Y2584896D01*
G01X-208273Y2590123D01*
G01X-208138Y2593759D01*
G01X-196455Y2593759D01*
G01X-196227Y2588532D01*
G01X-195773Y2585805D01*
G01X-195318Y2583532D01*
G01X-194636Y2581032D01*
G01X-193727Y2578532D01*
G01X-192818Y2576486D01*
G01X-191909Y2574896D01*
G01X-191227Y2573532D01*
G01X-190318Y2572395D01*
G01X-186909Y2568986D01*
G01X-185545Y2567850D01*
G01X-183727Y2566714D01*
G01X-181455Y2565577D01*
G01X-179182Y2564668D01*
G01X-176455Y2563986D01*
G01X-173955Y2563532D01*
G01X-172137Y2563305D01*
G01X-172137Y2563305D01*
G01X-169864Y2563077D01*
G01X-168727Y2562850D01*
G01X-168727Y2592168D01*
G01X-157364Y2592168D01*
G01X-157137Y2563077D01*
G01X-155318Y2562850D01*
G01X-153046Y2563077D01*
G01X-150773Y2563532D01*
G01X-147591Y2564214D01*
G01X-144864Y2565123D01*
G01X-141227Y2566941D01*
G01X-139636Y2567850D01*
G01X-138046Y2568986D01*
G01X-136455Y2570350D01*
G01X-135318Y2571486D01*
G01X-133500Y2573759D01*
G01X-132364Y2575350D01*
G01X-131455Y2577168D01*
G01X-130773Y2578759D01*
G01X-130091Y2580577D01*
G01X-129409Y2583077D01*
G01X-128955Y2585350D01*
G01X-128727Y2591941D01*
G01X-128955Y2598986D01*
G01X-129409Y2601259D01*
G01X-129864Y2603077D01*
G01X-130546Y2605123D01*
G01X-131682Y2607623D01*
G01X-132818Y2609214D01*
G01X-133727Y2610350D01*
G01X-135091Y2611941D01*
G01X-137137Y2613759D01*
G01X-139409Y2615350D01*
G01X-141227Y2616486D01*
G01X-143046Y2617395D01*
G01X-145091Y2618305D01*
G01X-148727Y2619668D01*
G01X-151000Y2620350D01*
G01X-153046Y2620805D01*
G01X-155546Y2621032D01*
G01X-157364Y2621032D01*
G01X-157364Y2592168D01*
G01X-157364Y2592168D01*
G01X-168727Y2592168D01*
G01X-168841Y2614100D01*
G01X-169182Y2621259D01*
G01X-170773Y2621032D01*
G01X-173500Y2620805D01*
G01X-175773Y2620350D01*
G01X-177591Y2619895D01*
G01X-179409Y2619214D01*
G01X-181227Y2618305D01*
G01X-183273Y2617168D01*
G01X-185091Y2616032D01*
G01X-186455Y2614895D01*
G01X-188727Y2612623D01*
G01X-190091Y2610805D01*
G01X-191455Y2608759D01*
G01X-192591Y2606941D01*
G01X-193727Y2604668D01*
G01X-195546Y2600123D01*
G01X-196227Y2598077D01*
G01X-196455Y2593759D01*
G01X-208138Y2593759D01*
G01X-208046Y2596259D01*
G01X-207591Y2598986D01*
G01X-207136Y2601259D01*
G01X-206682Y2603077D01*
G01X-206227Y2605123D01*
G01X-205546Y2607395D01*
G01X-204637Y2609668D01*
G01X-203500Y2612168D01*
G01X-201227Y2615805D01*
G01X-200091Y2617395D01*
G01X-199182Y2618532D01*
G01X-195318Y2622395D01*
G01X-193500Y2623759D01*
G01X-189864Y2626032D01*
G01X-188046Y2626941D01*
G01X-185773Y2627850D01*
G01X-183273Y2628759D01*
G01X-181227Y2629441D01*
G01X-177137Y2630350D01*
G01X-172137Y2631259D01*
G01X-170091Y2631486D01*
G01X-168727Y2631486D01*
G01X-168727Y2641486D01*
G01X-157364Y2641486D01*
G01X-157364Y2631032D01*
G01X-155546Y2631032D01*
G01X-152591Y2630804D01*
G01X-149409Y2630350D01*
G01X-146682Y2629895D01*
G01X-144636Y2629441D01*
G01X-142364Y2628759D01*
G01X-140318Y2628077D01*
G01X-138500Y2627395D01*
G01X-134864Y2625577D01*
G01X-133046Y2624441D01*
G01X-129864Y2622168D01*
G01X-128273Y2620805D01*
G01X-126000Y2618532D01*
G01X-125091Y2617395D01*
G01X-124409Y2616259D01*
G01X-123500Y2615123D01*
G01X-122364Y2613532D01*
G01X-120546Y2610350D01*
G01X-119637Y2608077D01*
G01X-118727Y2605350D01*
G01X-118046Y2603077D01*
G01X-117136Y2598077D01*
G01X-116909Y2590805D01*
G01X-117136Y2583532D01*
G01X-117591Y2581032D01*
G01X-118273Y2577850D01*
G01X-119182Y2575350D01*
G01X-120091Y2573304D01*
G01X-121000Y2571486D01*
G01X-123273Y2567850D01*
G01X-124409Y2566486D01*
G01X-128955Y2561941D01*
G01X-130091Y2561032D01*
G01X-131682Y2559896D01*
G01X-133500Y2558759D01*
G01X-136682Y2556941D01*
G01X-138727Y2556032D01*
G01X-141000Y2555123D01*
G01X-144636Y2553759D01*
G01X-146909Y2553077D01*
G01X-148955Y2552623D01*
G01X-151909Y2552395D01*
G01X-155773Y2552168D01*
G01X-157364Y2551941D01*
G01X-157364Y2541486D01*
G01X-168727Y2541486D01*
G37*
G36*
G01X-80546Y2539668D02*
G01X-80546Y2541032D01*
G01X-80318Y2543986D01*
G01X-79637Y2546941D01*
G01X-78728Y2549441D01*
G01X-77591Y2551714D01*
G01X-76455Y2553305D01*
G01X-75546Y2554668D01*
G01X-74409Y2556032D01*
G01X-65318Y2565123D01*
G01X-62591Y2568304D01*
G01X-60773Y2570577D01*
G01X-59637Y2571714D01*
G01X-58727Y2572850D01*
G01X-57364Y2574441D01*
G01X-53727Y2578986D01*
G01X-52364Y2580805D01*
G01X-49636Y2584214D01*
G01X-43955Y2592168D01*
G01X-42591Y2594441D01*
G01X-41455Y2596032D01*
G01X-40546Y2597623D01*
G01X-39409Y2599668D01*
G01X-38500Y2601486D01*
G01X-37137Y2604668D01*
G01X-36455Y2606486D01*
G01X-35773Y2608759D01*
G01X-35318Y2610805D01*
G01X-35091Y2613532D01*
G01X-35318Y2616714D01*
G01X-35773Y2618986D01*
G01X-36455Y2621032D01*
G01X-37591Y2623077D01*
G01X-38727Y2624668D01*
G01X-39636Y2625805D01*
G01X-41228Y2627168D01*
G01X-42818Y2628305D01*
G01X-44636Y2629214D01*
G01X-46682Y2629895D01*
G01X-48727Y2630123D01*
G01X-52137Y2629895D01*
G01X-55546Y2629214D01*
G01X-58046Y2628305D01*
G01X-60318Y2627168D01*
G01X-62364Y2625805D01*
G01X-63955Y2624668D01*
G01X-67364Y2621259D01*
G01X-68500Y2619668D01*
G01X-69637Y2617850D01*
G01X-70546Y2616032D01*
G01X-71227Y2614214D01*
G01X-71568Y2613532D01*
G01X-72137Y2613304D01*
G01X-73955Y2613532D01*
G01X-77136Y2613986D01*
G01X-79864Y2614441D01*
G01X-81682Y2614668D01*
G01X-82477Y2614895D01*
G01X-82591Y2615577D01*
G01X-81227Y2619214D01*
G01X-80546Y2620805D01*
G01X-78500Y2624895D01*
G01X-77136Y2627168D01*
G01X-74864Y2630350D01*
G01X-73500Y2631941D01*
G01X-70773Y2634668D01*
G01X-68500Y2636259D01*
G01X-66909Y2637396D01*
G01X-65318Y2638305D01*
G01X-63046Y2639214D01*
G01X-61227Y2639895D01*
G01X-57137Y2640804D01*
G01X-52591Y2641259D01*
G01X-49864Y2641486D01*
G01X-47137Y2641259D01*
G01X-45546Y2641032D01*
G01X-43500Y2640804D01*
G01X-39864Y2639895D01*
G01X-38046Y2639214D01*
G01X-36228Y2638305D01*
G01X-34182Y2637168D01*
G01X-32364Y2636032D01*
G01X-31000Y2634895D01*
G01X-28273Y2632168D01*
G01X-26682Y2629895D01*
G01X-25546Y2628077D01*
G01X-24636Y2626259D01*
G01X-23727Y2623759D01*
G01X-23046Y2621714D01*
G01X-22591Y2617623D01*
G01X-22364Y2615805D01*
G01X-22591Y2613986D01*
G01X-22818Y2611714D01*
G01X-23273Y2608532D01*
G01X-23955Y2606259D01*
G01X-24409Y2604441D01*
G01X-25091Y2602623D01*
G01X-26455Y2599441D01*
G01X-27364Y2597623D01*
G01X-29182Y2594441D01*
G01X-30318Y2592395D01*
G01X-32591Y2588759D01*
G01X-36000Y2583986D01*
G01X-38727Y2580350D01*
G01X-39636Y2579214D01*
G01X-40318Y2578077D01*
G01X-46682Y2570123D01*
G01X-51227Y2564668D01*
G01X-53955Y2561486D01*
G01X-56227Y2558759D01*
G01X-58046Y2556486D01*
G01X-59637Y2554895D01*
G01X-61000Y2553077D01*
G01X-62137Y2551941D01*
G01X-63046Y2550805D01*
G01X-57989Y2550293D01*
G01X-42364Y2550123D01*
G01X-21455Y2550123D01*
G01X-21455Y2539668D01*
G01X-80546Y2539668D01*
G37*
G36*
G01X20363Y2537850D02*
G01X16954Y2538077D01*
G01X12863Y2538759D01*
G01X10591Y2539441D01*
G01X9000Y2539895D01*
G01X7409Y2540577D01*
G01X3318Y2542623D01*
G01X1273Y2543986D01*
G01X-318Y2545123D01*
G01X-3727Y2548532D01*
G01X-4864Y2550123D01*
G01X-6000Y2551941D01*
G01X-6909Y2553532D01*
G01X-7818Y2555577D01*
G01X-8727Y2558305D01*
G01X-9637Y2561259D01*
G01X-10318Y2563532D01*
G01X-10262Y2564100D01*
G01X-9637Y2564441D01*
G01X-7818Y2565123D01*
G01X-2818Y2566486D01*
G01X-773Y2566941D01*
G01X193Y2566714D01*
G01X818Y2566032D01*
G01X2182Y2561941D01*
G01X3091Y2559896D01*
G01X4000Y2558077D01*
G01X5136Y2556259D01*
G01X6273Y2554668D01*
G01X7182Y2553532D01*
G01X8773Y2552168D01*
G01X11045Y2550805D01*
G01X13545Y2549895D01*
G01X15591Y2549441D01*
G01X19227Y2549214D01*
G01X23318Y2549441D01*
G01X25591Y2549895D01*
G01X27864Y2550577D01*
G01X29682Y2551486D01*
G01X31500Y2552623D01*
G01X33091Y2553759D01*
G01X34227Y2554668D01*
G01X35818Y2556259D01*
G01X37182Y2558077D01*
G01X38091Y2559441D01*
G01X39000Y2561259D01*
G01X39909Y2563305D01*
G01X40591Y2565577D01*
G01X41045Y2567623D01*
G01X41500Y2571714D01*
G01X41727Y2573304D01*
G01X41500Y2574896D01*
G01X41045Y2578986D01*
G01X40591Y2581032D01*
G01X39909Y2583532D01*
G01X39000Y2585577D01*
G01X38091Y2587168D01*
G01X36954Y2588986D01*
G01X35591Y2590577D01*
G01X34454Y2591714D01*
G01X32864Y2593077D01*
G01X31045Y2594214D01*
G01X29454Y2594895D01*
G01X27636Y2595577D01*
G01X25818Y2596032D01*
G01X22636Y2596486D01*
G01X20136Y2596259D01*
G01X16954Y2595805D01*
G01X13773Y2595123D01*
G01X11273Y2594214D01*
G01X9454Y2593304D01*
G01X8091Y2592395D01*
G01X6954Y2591714D01*
G01X5818Y2590805D01*
G01X4682Y2589668D01*
G01X3545Y2588304D01*
G01X2920Y2587623D01*
G01X1954Y2587395D01*
G01X-3500Y2588077D01*
G01X-5773Y2588304D01*
G01X-7364Y2588304D01*
G01X-6909Y2589896D01*
G01X-5773Y2594441D01*
G01X-3955Y2602623D01*
G01X-3500Y2604895D01*
G01X-2818Y2608077D01*
G01X-2137Y2610805D01*
G01X-1682Y2613077D01*
G01X-1228Y2614895D01*
G01X-773Y2617395D01*
G01X-91Y2620805D01*
G01X591Y2623532D01*
G01X1045Y2625805D01*
G01X1500Y2627623D01*
G01X2409Y2632168D01*
G01X3318Y2636259D01*
G01X3545Y2637850D01*
G01X9397Y2638532D01*
G01X26954Y2638759D01*
G01X50363Y2638759D01*
G01X50363Y2628305D01*
G01X13091Y2628305D01*
G01X12636Y2627168D01*
G01X11954Y2624895D01*
G01X11045Y2620350D01*
G01X10591Y2618532D01*
G01X10136Y2616259D01*
G01X9454Y2613077D01*
G01X8773Y2610805D01*
G01X8318Y2608532D01*
G01X7636Y2606032D01*
G01X7409Y2604441D01*
G01X7750Y2603986D01*
G01X8318Y2603986D01*
G01X10363Y2604668D01*
G01X13318Y2605577D01*
G01X15591Y2606259D01*
G01X18773Y2606714D01*
G01X21045Y2606941D01*
G01X24227Y2606714D01*
G01X27864Y2606259D01*
G01X31500Y2605577D01*
G01X34454Y2604668D01*
G01X36727Y2603759D01*
G01X38773Y2602850D01*
G01X40818Y2601714D01*
G01X42864Y2600350D01*
G01X44454Y2598986D01*
G01X46727Y2596714D01*
G01X47636Y2595577D01*
G01X48545Y2593986D01*
G01X50363Y2590350D01*
G01X51272Y2588304D01*
G01X52182Y2586032D01*
G01X52863Y2583986D01*
G01X53773Y2579441D01*
G01X54000Y2574896D01*
G01X53773Y2568986D01*
G01X53318Y2566259D01*
G01X52863Y2563986D01*
G01X52182Y2561032D01*
G01X51272Y2558305D01*
G01X50363Y2555805D01*
G01X49227Y2553532D01*
G01X48091Y2551714D01*
G01X47182Y2550350D01*
G01X45363Y2548077D01*
G01X43773Y2546486D01*
G01X41500Y2544668D01*
G01X39454Y2543305D01*
G01X37864Y2542395D01*
G01X35136Y2541032D01*
G01X33545Y2540350D01*
G01X31727Y2539668D01*
G01X29682Y2538986D01*
G01X27864Y2538532D01*
G01X24227Y2538077D01*
G01X20363Y2537850D01*
G37*
G36*
G01X67636Y2539214D02*
G01X67636Y2639214D01*
G01X75818Y2639214D01*
G01X85136Y2638986D01*
G01X86045Y2638418D01*
G01X86500Y2637168D01*
G01X88318Y2628077D01*
G01X88772Y2625350D01*
G01X91954Y2609441D01*
G01X92409Y2606714D01*
G01X94682Y2595350D01*
G01X95591Y2590350D01*
G01X98318Y2576714D01*
G01X98545Y2574896D01*
G01X98716Y2573986D01*
G01X99227Y2573532D01*
G01X99795Y2573645D01*
G01X100136Y2574441D01*
G01X103318Y2590350D01*
G01X103772Y2593077D01*
G01X106500Y2606714D01*
G01X106954Y2609441D01*
G01X110136Y2625350D01*
G01X110591Y2628077D01*
G01X111954Y2634895D01*
G01X112409Y2637396D01*
G01X112636Y2639214D01*
G01X131273Y2639214D01*
G01X131273Y2539214D01*
G01X119000Y2539214D01*
G01X119000Y2574214D01*
G01X118772Y2609895D01*
G01X118488Y2610236D01*
G01X118091Y2609895D01*
G01X117409Y2607395D01*
G01X116954Y2604895D01*
G01X112409Y2582168D01*
G01X111500Y2577168D01*
G01X106500Y2552168D01*
G01X106045Y2549441D01*
G01X104000Y2539214D01*
G01X99454Y2539214D01*
G01X95931Y2539384D01*
G01X94454Y2539895D01*
G01X93772Y2542395D01*
G01X93318Y2544895D01*
G01X88318Y2569896D01*
G01X87863Y2572623D01*
G01X82863Y2597623D01*
G01X82409Y2600350D01*
G01X81045Y2607168D01*
G01X80818Y2608986D01*
G01X80648Y2609895D01*
G01X80136Y2610350D01*
G01X79625Y2601600D01*
G01X79454Y2574896D01*
G01X79454Y2539214D01*
G01X67636Y2539214D01*
G37*
G36*
G01X142636Y2539214D02*
G01X142636Y2639214D01*
G01X150818Y2639214D01*
G01X160136Y2638986D01*
G01X161045Y2638418D01*
G01X161500Y2637168D01*
G01X163318Y2628077D01*
G01X163773Y2625350D01*
G01X166954Y2609441D01*
G01X167409Y2606714D01*
G01X169682Y2595350D01*
G01X170591Y2590350D01*
G01X173318Y2576714D01*
G01X173545Y2574896D01*
G01X173716Y2573986D01*
G01X174227Y2573532D01*
G01X174795Y2573645D01*
G01X175136Y2574441D01*
G01X178318Y2590350D01*
G01X178773Y2593077D01*
G01X181500Y2606714D01*
G01X181954Y2609441D01*
G01X185136Y2625350D01*
G01X185591Y2628077D01*
G01X186954Y2634895D01*
G01X187409Y2637396D01*
G01X187636Y2639214D01*
G01X206272Y2639214D01*
G01X206272Y2539214D01*
G01X194000Y2539214D01*
G01X194000Y2574214D01*
G01X193773Y2609895D01*
G01X193488Y2610236D01*
G01X193091Y2609895D01*
G01X192409Y2607395D01*
G01X191954Y2604895D01*
G01X187409Y2582168D01*
G01X186500Y2577168D01*
G01X181500Y2552168D01*
G01X181045Y2549441D01*
G01X179000Y2539214D01*
G01X174454Y2539214D01*
G01X170932Y2539384D01*
G01X169454Y2539895D01*
G01X168773Y2542395D01*
G01X168318Y2544895D01*
G01X163318Y2569896D01*
G01X162863Y2572623D01*
G01X157863Y2597623D01*
G01X157409Y2600350D01*
G01X156045Y2607168D01*
G01X155818Y2608986D01*
G01X155647Y2609895D01*
G01X155136Y2610350D01*
G01X154625Y2601600D01*
G01X154454Y2574896D01*
G01X154454Y2539214D01*
G01X142636Y2539214D01*
G37*
G01X-132601Y-3202778D02*
G01X-132601Y-3320888D01*
G01X-132601Y-3202778D02*
G01X-87389Y-3320888D01*
G01X-42431Y-3202778D02*
G01X-87389Y-3320888D01*
G01X-42431Y-3202778D02*
G01X-42431Y-3320888D01*
G01X4559Y-3202778D02*
G01X4559Y-3320888D01*
G01X135877Y-3230718D02*
G01X130289Y-3219542D01*
G01X119113Y-3208366D01*
G01X107937Y-3202778D01*
G01X85331Y-3202778D01*
G01X74155Y-3208366D01*
G01X62725Y-3219542D01*
G01X57137Y-3230718D01*
G01X51549Y-3247736D01*
G01X51549Y-3275676D01*
G01X57137Y-3292694D01*
G01X62725Y-3303870D01*
G01X74155Y-3315046D01*
G01X85331Y-3320888D01*
G01X107937Y-3320888D01*
G01X119113Y-3315046D01*
G01X130289Y-3303870D01*
G01X135877Y-3292694D01*
G54D10*
G01X-1903597Y-3669887D02*
G01X-1930267Y-3669887D01*
G01X-1932807Y-3693763D01*
G01X-1930267Y-3690969D01*
G01X-1922139Y-3688429D01*
G01X-1914265Y-3688429D01*
G01X-1906137Y-3690969D01*
G01X-1901057Y-3696303D01*
G01X-1898263Y-3704431D01*
G01X-1898263Y-3709765D01*
G01X-1901057Y-3717639D01*
G01X-1906137Y-3722973D01*
G01X-1914265Y-3725513D01*
G01X-1922139Y-3725513D01*
G01X-1930267Y-3722973D01*
G01X-1932807Y-3720179D01*
G01X-1935347Y-3714845D01*
G01X-1870577Y-3669887D02*
G01X-1849241Y-3725513D01*
G01X-1827905Y-3669887D02*
G01X-1849241Y-3725513D01*
G01X-1800219Y-3669887D02*
G01X-1800219Y-3725513D01*
G01X-1772279Y-3669887D02*
G01X-1772279Y-3725513D01*
G01X-1772279Y-3669887D02*
G01X-1735195Y-3725513D01*
G01X-1735195Y-3669887D02*
G01X-1735195Y-3725513D01*
G54D11*
G01X-1886325Y-3429968D02*
G01X-1889373Y-3423618D01*
G01X-1895977Y-3417014D01*
G01X-1902581Y-3413712D01*
G01X-1915535Y-3413712D01*
G01X-1921885Y-3417014D01*
G01X-1928489Y-3423618D01*
G01X-1931791Y-3429968D01*
G01X-1935093Y-3439874D01*
G01X-1935093Y-3456130D01*
G01X-1931791Y-3465782D01*
G01X-1928489Y-3472386D01*
G01X-1921885Y-3478736D01*
G01X-1915535Y-3482038D01*
G01X-1902581Y-3482038D01*
G01X-1895977Y-3478736D01*
G01X-1889373Y-3472386D01*
G01X-1886325Y-3465782D01*
G01X-1886325Y-3456130D01*
G01X-1902581Y-3456130D02*
G01X-1886325Y-3456130D01*
G01X-1854829Y-3413712D02*
G01X-1854829Y-3482038D01*
G01X-1854829Y-3413712D02*
G01X-1809109Y-3482038D01*
G01X-1809109Y-3413712D02*
G01X-1809109Y-3482038D01*
G01X-1777613Y-3413712D02*
G01X-1777613Y-3482038D01*
G01X-1777613Y-3413712D02*
G01X-1754753Y-3413712D01*
G01X-1745101Y-3417014D01*
G01X-1738497Y-3423618D01*
G01X-1735195Y-3429968D01*
G01X-1731893Y-3439874D01*
G01X-1731893Y-3456130D01*
G01X-1735195Y-3465782D01*
G01X-1738497Y-3472386D01*
G01X-1745101Y-3478736D01*
G01X-1754753Y-3482038D01*
G01X-1777613Y-3482038D01*
G01X1730411Y-3663514D02*
G01X1766225Y-3663514D01*
G01X1746667Y-3689676D01*
G01X1756319Y-3689676D01*
G01X1762923Y-3692724D01*
G01X1766225Y-3696026D01*
G01X1769527Y-3705932D01*
G01X1769527Y-3712282D01*
G01X1766225Y-3722188D01*
G01X1759621Y-3728538D01*
G01X1749969Y-3731840D01*
G01X1740063Y-3731840D01*
G01X1730411Y-3728538D01*
G01X1727109Y-3725236D01*
G01X1723807Y-3718886D01*
G01X1801023Y-3663514D02*
G01X1827185Y-3731840D01*
G01X1853093Y-3663514D02*
G01X1827185Y-3731840D01*
G01X1891193Y-3663514D02*
G01X1927007Y-3663514D01*
G01X1907449Y-3689676D01*
G01X1917101Y-3689676D01*
G01X1923705Y-3692724D01*
G01X1927007Y-3696026D01*
G01X1930309Y-3705932D01*
G01X1930309Y-3712282D01*
G01X1927007Y-3722188D01*
G01X1920403Y-3728538D01*
G01X1910751Y-3731840D01*
G01X1900845Y-3731840D01*
G01X1891193Y-3728538D01*
G01X1887891Y-3725236D01*
G01X1884589Y-3718886D01*
G01X1774226Y-3425793D02*
G01X1771178Y-3419443D01*
G01X1764574Y-3412839D01*
G01X1757970Y-3409537D01*
G01X1745016Y-3409537D01*
G01X1738666Y-3412839D01*
G01X1732062Y-3419443D01*
G01X1728760Y-3425793D01*
G01X1725458Y-3435699D01*
G01X1725458Y-3451955D01*
G01X1728760Y-3461607D01*
G01X1732062Y-3468211D01*
G01X1738666Y-3474561D01*
G01X1745016Y-3477863D01*
G01X1757970Y-3477863D01*
G01X1764574Y-3474561D01*
G01X1771178Y-3468211D01*
G01X1774226Y-3461607D01*
G01X1774226Y-3451955D01*
G01X1757970Y-3451955D02*
G01X1774226Y-3451955D01*
G01X1805722Y-3409537D02*
G01X1805722Y-3477863D01*
G01X1805722Y-3409537D02*
G01X1851442Y-3477863D01*
G01X1851442Y-3409537D02*
G01X1851442Y-3477863D01*
G01X1882938Y-3409537D02*
G01X1882938Y-3477863D01*
G01X1882938Y-3409537D02*
G01X1905798Y-3409537D01*
G01X1915450Y-3412839D01*
G01X1922054Y-3419443D01*
G01X1925356Y-3425793D01*
G01X1928658Y-3435699D01*
G01X1928658Y-3451955D01*
G01X1925356Y-3461607D01*
G01X1922054Y-3468211D01*
G01X1915450Y-3474561D01*
G01X1905798Y-3477863D01*
G01X1882938Y-3477863D01*
G54D10*
G01X-2107483Y-1790803D02*
G01X-2107483Y-1846429D01*
G01X-2107483Y-1846429D02*
G01X-2075733Y-1846429D01*
G01X-2048047Y-1790803D02*
G01X-2048047Y-1846429D01*
G01X-2048047Y-1790803D02*
G01X-2029505Y-1790803D01*
G01X-2021377Y-1793343D01*
G01X-2016043Y-1798677D01*
G01X-2013503Y-1804011D01*
G01X-2010709Y-1811885D01*
G01X-2010709Y-1825347D01*
G01X-2013503Y-1833221D01*
G01X-2016043Y-1838555D01*
G01X-2021377Y-1843889D01*
G01X-2029505Y-1846429D01*
G01X-2048047Y-1846429D01*
G01X-1967021Y-1790803D02*
G01X-1972355Y-1793343D01*
G01X-1977689Y-1798677D01*
G01X-1980229Y-1804011D01*
G01X-1983023Y-1811885D01*
G01X-1983023Y-1825347D01*
G01X-1980229Y-1833221D01*
G01X-1977689Y-1838555D01*
G01X-1972355Y-1843889D01*
G01X-1967021Y-1846429D01*
G01X-1956353Y-1846429D01*
G01X-1951019Y-1843889D01*
G01X-1945685Y-1838555D01*
G01X-1943145Y-1833221D01*
G01X-1940351Y-1825347D01*
G01X-1940351Y-1811885D01*
G01X-1943145Y-1804011D01*
G01X-1945685Y-1798677D01*
G01X-1951019Y-1793343D01*
G01X-1956353Y-1790803D01*
G01X-1967021Y-1790803D01*
G01X-1880661Y-1790803D02*
G01X-1907331Y-1790803D01*
G01X-1909871Y-1814679D01*
G01X-1907331Y-1811885D01*
G01X-1899203Y-1809345D01*
G01X-1891329Y-1809345D01*
G01X-1883455Y-1811885D01*
G01X-1878121Y-1817219D01*
G01X-1875327Y-1825347D01*
G01X-1875327Y-1830681D01*
G01X-1878121Y-1838555D01*
G01X-1883455Y-1843889D01*
G01X-1891329Y-1846429D01*
G01X-1899203Y-1846429D01*
G01X-1907331Y-1843889D01*
G01X-1909871Y-1841095D01*
G01X-1912665Y-1835761D01*
G01X-1847641Y-1790803D02*
G01X-1826305Y-1846429D01*
G01X-1804969Y-1790803D02*
G01X-1826305Y-1846429D01*
G54D13*
G01X-900745Y-2539849D02*
G01X-900745Y-2595475D01*
G01X-928685Y-2567535D02*
G01X-873059Y-2567535D01*
G01X-805749Y-2530451D02*
G01X-836737Y-2530451D01*
G01X-839785Y-2558391D01*
G01X-836737Y-2555343D01*
G01X-827593Y-2552041D01*
G01X-818195Y-2552041D01*
G01X-809051Y-2555343D01*
G01X-802701Y-2561439D01*
G01X-799653Y-2570583D01*
G01X-799653Y-2576933D01*
G01X-802701Y-2586077D01*
G01X-809051Y-2592427D01*
G01X-818195Y-2595475D01*
G01X-827593Y-2595475D01*
G01X-836737Y-2592427D01*
G01X-839785Y-2589125D01*
G01X-842833Y-2583029D01*
G01X-769427Y-2530451D02*
G01X-744789Y-2595475D01*
G01X-720151Y-2530451D02*
G01X-744789Y-2595475D01*
G01X-620583Y-2545945D02*
G01X-623885Y-2539849D01*
G01X-629981Y-2533499D01*
G01X-636077Y-2530451D01*
G01X-648523Y-2530451D01*
G01X-654619Y-2533499D01*
G01X-660969Y-2539849D01*
G01X-664017Y-2545945D01*
G01X-667065Y-2555343D01*
G01X-667065Y-2570583D01*
G01X-664017Y-2579981D01*
G01X-660969Y-2586077D01*
G01X-654619Y-2592427D01*
G01X-648523Y-2595475D01*
G01X-636077Y-2595475D01*
G01X-629981Y-2592427D01*
G01X-623885Y-2586077D01*
G01X-620583Y-2579981D01*
G01X-620583Y-2570583D01*
G01X-636077Y-2570583D02*
G01X-620583Y-2570583D01*
G01X-590357Y-2530451D02*
G01X-590357Y-2595475D01*
G01X-590357Y-2530451D02*
G01X-547177Y-2595475D01*
G01X-547177Y-2530451D02*
G01X-547177Y-2595475D01*
G01X-516951Y-2530451D02*
G01X-516951Y-2595475D01*
G01X-516951Y-2530451D02*
G01X-495361Y-2530451D01*
G01X-486217Y-2533499D01*
G01X-479867Y-2539849D01*
G01X-476819Y-2545945D01*
G01X-473771Y-2555343D01*
G01X-473771Y-2570583D01*
G01X-476819Y-2579981D01*
G01X-479867Y-2586077D01*
G01X-486217Y-2592427D01*
G01X-495361Y-2595475D01*
G01X-516951Y-2595475D01*
G01X-389824Y-2530451D02*
G01X-389824Y-2595475D01*
G01X-411414Y-2530451D02*
G01X-368234Y-2530451D01*
G01X-338008Y-2530451D02*
G01X-294828Y-2595475D01*
G01X-294828Y-2530451D02*
G01X-338008Y-2595475D01*
G01X-264602Y-2530451D02*
G01X-264602Y-2595475D01*
G01X-264602Y-2530451D02*
G01X-243012Y-2530451D01*
G01X-233868Y-2533499D01*
G01X-227518Y-2539849D01*
G01X-224470Y-2545945D01*
G01X-221422Y-2555343D01*
G01X-221422Y-2570583D01*
G01X-224470Y-2579981D01*
G01X-227518Y-2586077D01*
G01X-233868Y-2592427D01*
G01X-243012Y-2595475D01*
G01X-264602Y-2595475D01*
G01X-157414Y-2530451D02*
G01X-157414Y-2595475D01*
G01X-157414Y-2530451D02*
G01X-129474Y-2530451D01*
G01X-120330Y-2533499D01*
G01X-117282Y-2536801D01*
G01X-114234Y-2542897D01*
G01X-114234Y-2548993D01*
G01X-117282Y-2555343D01*
G01X-120330Y-2558391D01*
G01X-129474Y-2561439D01*
G01X-157414Y-2561439D01*
G01X-135824Y-2561439D02*
G01X-114234Y-2595475D01*
G01X-84008Y-2530451D02*
G01X-40828Y-2595475D01*
G01X-40828Y-2530451D02*
G01X-84008Y-2595475D01*
G01X-10602Y-2530451D02*
G01X-10602Y-2595475D01*
G01X-10602Y-2530451D02*
G01X10988Y-2530451D01*
G01X20132Y-2533499D01*
G01X26482Y-2539849D01*
G01X29530Y-2545945D01*
G01X32578Y-2555343D01*
G01X32578Y-2570583D01*
G01X29530Y-2579981D01*
G01X26482Y-2586077D01*
G01X20132Y-2592427D01*
G01X10988Y-2595475D01*
G01X-10602Y-2595475D01*
G01X134813Y-2530451D02*
G01X134813Y-2595475D01*
G01X134813Y-2530451D02*
G01X174945Y-2530451D01*
G01X134813Y-2561439D02*
G01X159451Y-2561439D01*
G01X134813Y-2595475D02*
G01X174945Y-2595475D01*
G01X205171Y-2530451D02*
G01X205171Y-2595475D01*
G01X205171Y-2530451D02*
G01X248351Y-2595475D01*
G01X248351Y-2530451D02*
G01X248351Y-2595475D01*
G01X355038Y-2530451D02*
G01X355038Y-2595475D01*
G01X355038Y-2530451D02*
G01X382978Y-2530451D01*
G01X392122Y-2533499D01*
G01X395170Y-2536801D01*
G01X398218Y-2542897D01*
G01X398218Y-2548993D01*
G01X395170Y-2555343D01*
G01X392122Y-2558391D01*
G01X382978Y-2561439D01*
G01X355038Y-2561439D02*
G01X382978Y-2561439D01*
G01X392122Y-2564487D01*
G01X395170Y-2567535D01*
G01X398218Y-2573885D01*
G01X398218Y-2583029D01*
G01X395170Y-2589125D01*
G01X392122Y-2592427D01*
G01X382978Y-2595475D01*
G01X355038Y-2595475D01*
G01X453082Y-2530451D02*
G01X428444Y-2595475D01*
G01X453082Y-2530451D02*
G01X477720Y-2595475D01*
G01X437588Y-2573885D02*
G01X468576Y-2573885D01*
G01X529536Y-2530451D02*
G01X529536Y-2595475D01*
G01X507946Y-2530451D02*
G01X551126Y-2530451D01*
G01X346732Y-830178D02*
G01X346732Y-895202D01*
G01X346732Y-830178D02*
G01X374672Y-830178D01*
G01X383816Y-833226D01*
G01X386864Y-836528D01*
G01X389912Y-842624D01*
G01X389912Y-848720D01*
G01X386864Y-855070D01*
G01X383816Y-858118D01*
G01X374672Y-861166D01*
G01X346732Y-861166D02*
G01X374672Y-861166D01*
G01X383816Y-864214D01*
G01X386864Y-867262D01*
G01X389912Y-873612D01*
G01X389912Y-882756D01*
G01X386864Y-888852D01*
G01X383816Y-892154D01*
G01X374672Y-895202D01*
G01X346732Y-895202D01*
G01X438680Y-830178D02*
G01X432330Y-833226D01*
G01X426234Y-839576D01*
G01X423186Y-845672D01*
G01X420138Y-855070D01*
G01X420138Y-870310D01*
G01X423186Y-879708D01*
G01X426234Y-885804D01*
G01X432330Y-892154D01*
G01X438680Y-895202D01*
G01X450872Y-895202D01*
G01X457222Y-892154D01*
G01X463318Y-885804D01*
G01X466366Y-879708D01*
G01X469414Y-870310D01*
G01X469414Y-855070D01*
G01X466366Y-845672D01*
G01X463318Y-839576D01*
G01X457222Y-833226D01*
G01X450872Y-830178D01*
G01X438680Y-830178D01*
G01X518182Y-830178D02*
G01X511832Y-833226D01*
G01X505736Y-839576D01*
G01X502688Y-845672D01*
G01X499640Y-855070D01*
G01X499640Y-870310D01*
G01X502688Y-879708D01*
G01X505736Y-885804D01*
G01X511832Y-892154D01*
G01X518182Y-895202D01*
G01X530374Y-895202D01*
G01X536724Y-892154D01*
G01X542820Y-885804D01*
G01X545868Y-879708D01*
G01X548916Y-870310D01*
G01X548916Y-855070D01*
G01X545868Y-845672D01*
G01X542820Y-839576D01*
G01X536724Y-833226D01*
G01X530374Y-830178D01*
G01X518182Y-830178D01*
G01X600732Y-830178D02*
G01X600732Y-895202D01*
G01X579142Y-830178D02*
G01X622322Y-830178D01*
G01X98955Y-830178D02*
G01X98955Y-895202D01*
G01X98955Y-830178D02*
G01X142135Y-895202D01*
G01X142135Y-830178D02*
G01X142135Y-895202D01*
G01X172361Y-830178D02*
G01X172361Y-895202D01*
G01X172361Y-830178D02*
G01X212493Y-830178D01*
G01X172361Y-861166D02*
G01X196999Y-861166D01*
G01X172361Y-895202D02*
G01X212493Y-895202D01*
G01X264309Y-830178D02*
G01X264309Y-895202D01*
G01X242719Y-830178D02*
G01X285899Y-830178D01*
G01X-162792Y-830178D02*
G01X-162792Y-876660D01*
G01X-159744Y-885804D01*
G01X-153394Y-892154D01*
G01X-144250Y-895202D01*
G01X-138154Y-895202D01*
G01X-128756Y-892154D01*
G01X-122660Y-885804D01*
G01X-119612Y-876660D01*
G01X-119612Y-830178D01*
G01X-89386Y-830178D02*
G01X-89386Y-895202D01*
G01X-89386Y-830178D02*
G01X-67796Y-830178D01*
G01X-58652Y-833226D01*
G01X-52302Y-839576D01*
G01X-49254Y-845672D01*
G01X-46206Y-855070D01*
G01X-46206Y-870310D01*
G01X-49254Y-879708D01*
G01X-52302Y-885804D01*
G01X-58652Y-892154D01*
G01X-67796Y-895202D01*
G01X-89386Y-895202D01*
G01X-15980Y-867262D02*
G01X39646Y-867262D01*
G01X-416792Y-830178D02*
G01X-416792Y-876660D01*
G01X-413744Y-885804D01*
G01X-407394Y-892154D01*
G01X-398250Y-895202D01*
G01X-392154Y-895202D01*
G01X-382756Y-892154D01*
G01X-376660Y-885804D01*
G01X-373612Y-876660D01*
G01X-373612Y-830178D01*
G01X-343386Y-830178D02*
G01X-343386Y-895202D01*
G01X-343386Y-830178D02*
G01X-321796Y-830178D01*
G01X-312652Y-833226D01*
G01X-306302Y-839576D01*
G01X-303254Y-845672D01*
G01X-300206Y-855070D01*
G01X-300206Y-870310D01*
G01X-303254Y-879708D01*
G01X-306302Y-885804D01*
G01X-312652Y-892154D01*
G01X-321796Y-895202D01*
G01X-343386Y-895202D01*
G01X-242294Y-839576D02*
G01X-242294Y-895202D01*
G01X-269980Y-867262D02*
G01X-214354Y-867262D01*
G01X-619738Y-845672D02*
G01X-623040Y-839576D01*
G01X-629136Y-833226D01*
G01X-635232Y-830178D01*
G01X-647678Y-830178D01*
G01X-653774Y-833226D01*
G01X-660124Y-839576D01*
G01X-663172Y-845672D01*
G01X-666220Y-855070D01*
G01X-666220Y-870310D01*
G01X-663172Y-879708D01*
G01X-660124Y-885804D01*
G01X-653774Y-892154D01*
G01X-647678Y-895202D01*
G01X-635232Y-895202D01*
G01X-629136Y-892154D01*
G01X-623040Y-885804D01*
G01X-619738Y-879708D01*
G01X-619738Y-870310D01*
G01X-635232Y-870310D02*
G01X-619738Y-870310D01*
G01X-589512Y-830178D02*
G01X-589512Y-895202D01*
G01X-589512Y-830178D02*
G01X-546332Y-895202D01*
G01X-546332Y-830178D02*
G01X-546332Y-895202D01*
G01X-516106Y-830178D02*
G01X-516106Y-895202D01*
G01X-516106Y-830178D02*
G01X-494516Y-830178D01*
G01X-485372Y-833226D01*
G01X-479022Y-839576D01*
G01X-475974Y-845672D01*
G01X-472926Y-855070D01*
G01X-472926Y-870310D01*
G01X-475974Y-879708D01*
G01X-479022Y-885804D01*
G01X-485372Y-892154D01*
G01X-494516Y-895202D01*
G01X-516106Y-895202D01*
G01X-899900Y-839576D02*
G01X-899900Y-895202D01*
G01X-927840Y-867262D02*
G01X-872214Y-867262D01*
G01X-804904Y-830178D02*
G01X-835892Y-830178D01*
G01X-838940Y-858118D01*
G01X-835892Y-855070D01*
G01X-826748Y-851768D01*
G01X-817350Y-851768D01*
G01X-808206Y-855070D01*
G01X-801856Y-861166D01*
G01X-798808Y-870310D01*
G01X-798808Y-876660D01*
G01X-801856Y-885804D01*
G01X-808206Y-892154D01*
G01X-817350Y-895202D01*
G01X-826748Y-895202D01*
G01X-835892Y-892154D01*
G01X-838940Y-888852D01*
G01X-841988Y-882756D01*
G01X-768582Y-830178D02*
G01X-743944Y-895202D01*
G01X-719306Y-830178D02*
G01X-743944Y-895202D01*
G54D12*
G01X789932Y-2827349D02*
G01X895088Y-2827349D01*
G01X789932Y-2827349D02*
G01X895088Y-2787217D01*
G01X789932Y-2747339D02*
G01X895088Y-2787217D01*
G01X789932Y-2747339D02*
G01X895088Y-2747339D01*
G01X789932Y-2703397D02*
G01X895088Y-2703397D01*
G01X895088Y-2703397D02*
G01X895088Y-2643453D01*
G01X789932Y-2589351D02*
G01X789932Y-2534487D01*
G01X830064Y-2564459D01*
G01X830064Y-2549473D01*
G01X835144Y-2539567D01*
G01X839970Y-2534487D01*
G01X854956Y-2529407D01*
G01X865116Y-2529407D01*
G01X880102Y-2534487D01*
G01X890008Y-2544393D01*
G01X895088Y-2559379D01*
G01X895088Y-2574365D01*
G01X890008Y-2589351D01*
G01X884928Y-2594431D01*
G01X875022Y-2599511D01*
G01X789932Y-2455493D02*
G01X795012Y-2470479D01*
G01X809998Y-2480385D01*
G01X835144Y-2485465D01*
G01X850130Y-2485465D01*
G01X875022Y-2480385D01*
G01X890008Y-2470479D01*
G01X895088Y-2455493D01*
G01X895088Y-2445333D01*
G01X890008Y-2430347D01*
G01X875022Y-2420441D01*
G01X850130Y-2415361D01*
G01X835144Y-2415361D01*
G01X809998Y-2420441D01*
G01X795012Y-2430347D01*
G01X789932Y-2445333D01*
G01X789932Y-2455493D01*
G01X789932Y-2301315D02*
G01X895088Y-2351353D01*
G01X789932Y-2371419D02*
G01X789932Y-2301315D01*
G01X789932Y-2257373D02*
G01X895088Y-2257373D01*
G01X789932Y-2257373D02*
G01X789932Y-2212415D01*
G01X795012Y-2197429D01*
G01X800092Y-2192349D01*
G01X809998Y-2187269D01*
G01X820158Y-2187269D01*
G01X830064Y-2192349D01*
G01X835144Y-2197429D01*
G01X839970Y-2212415D01*
G01X839970Y-2257373D01*
G01X839970Y-2222321D02*
G01X895088Y-2187269D01*
G01X850130Y-2143327D02*
G01X850130Y-2053157D01*
G01X789932Y-1959177D02*
G01X860036Y-2009215D01*
G01X860036Y-1934031D01*
G01X789932Y-1959177D02*
G01X895088Y-1959177D01*
G01X815078Y-1814905D02*
G01X805172Y-1819985D01*
G01X795012Y-1830145D01*
G01X789932Y-1840051D01*
G01X789932Y-1860117D01*
G01X795012Y-1870023D01*
G01X805172Y-1879929D01*
G01X815078Y-1885009D01*
G01X830064Y-1890089D01*
G01X854956Y-1890089D01*
G01X869942Y-1885009D01*
G01X880102Y-1879929D01*
G01X890008Y-1870023D01*
G01X895088Y-1860117D01*
G01X895088Y-1840051D01*
G01X890008Y-1830145D01*
G01X880102Y-1819985D01*
G01X869942Y-1814905D01*
G01X854956Y-1814905D01*
G01X854956Y-1840051D02*
G01X854956Y-1814905D01*
G01X850130Y-1770963D02*
G01X850130Y-1680793D01*
G01X789932Y-1636851D02*
G01X895088Y-1636851D01*
G01X789932Y-1636851D02*
G01X895088Y-1596719D01*
G01X789932Y-1556841D02*
G01X895088Y-1596719D01*
G01X789932Y-1556841D02*
G01X895088Y-1556841D01*
G01X789932Y-1482927D02*
G01X795012Y-1492833D01*
G01X805172Y-1502739D01*
G01X815078Y-1507819D01*
G01X830064Y-1512899D01*
G01X854956Y-1512899D01*
G01X869942Y-1507819D01*
G01X880102Y-1502739D01*
G01X890008Y-1492833D01*
G01X895088Y-1482927D01*
G01X895088Y-1462861D01*
G01X890008Y-1452955D01*
G01X880102Y-1442795D01*
G01X869942Y-1437715D01*
G01X854956Y-1432889D01*
G01X830064Y-1432889D01*
G01X815078Y-1437715D01*
G01X805172Y-1442795D01*
G01X795012Y-1452955D01*
G01X789932Y-1462861D01*
G01X789932Y-1482927D01*
G01X789932Y-1388947D02*
G01X895088Y-1388947D01*
G01X789932Y-1388947D02*
G01X789932Y-1353895D01*
G01X795012Y-1338909D01*
G01X805172Y-1329003D01*
G01X815078Y-1323923D01*
G01X830064Y-1318843D01*
G01X854956Y-1318843D01*
G01X869942Y-1323923D01*
G01X880102Y-1329003D01*
G01X890008Y-1338909D01*
G01X895088Y-1353895D01*
G01X895088Y-1388947D01*
G01X789932Y-1274901D02*
G01X865116Y-1274901D01*
G01X880102Y-1269821D01*
G01X890008Y-1259915D01*
G01X895088Y-1244929D01*
G01X895088Y-1234769D01*
G01X890008Y-1219783D01*
G01X880102Y-1209877D01*
G01X865116Y-1204797D01*
G01X789932Y-1204797D01*
G01X789932Y-1160855D02*
G01X895088Y-1160855D01*
G01X895088Y-1160855D02*
G01X895088Y-1100911D01*
G01X789932Y-1056969D02*
G01X895088Y-1056969D01*
G01X789932Y-1056969D02*
G01X789932Y-991945D01*
G01X839970Y-1056969D02*
G01X839970Y-1016837D01*
G01X895088Y-1056969D02*
G01X895088Y-991945D01*
G54D13*
G01X895814Y-779898D02*
G01X960838Y-804536D01*
G01X895814Y-779898D02*
G01X960838Y-755006D01*
G01X939248Y-795138D02*
G01X939248Y-764404D01*
G01X895814Y-724780D02*
G01X960838Y-724780D01*
G01X895814Y-724780D02*
G01X960838Y-681600D01*
G01X895814Y-681600D02*
G01X960838Y-681600D01*
G01X895814Y-629784D02*
G01X960838Y-629784D01*
G01X895814Y-651374D02*
G01X895814Y-608194D01*
G54D14*
G01X-222391Y-2277998D02*
G01X-222391Y-2343022D01*
G01X-222391Y-2277998D02*
G01X-197499Y-2343022D01*
G01X-172861Y-2277998D02*
G01X-197499Y-2343022D01*
G01X-172861Y-2277998D02*
G01X-172861Y-2343022D01*
G01X-142635Y-2277998D02*
G01X-142635Y-2343022D01*
G01X-142635Y-2343022D02*
G01X-105551Y-2343022D01*
G01X-69229Y-2277998D02*
G01X-35193Y-2277998D01*
G01X-53735Y-2302636D01*
G01X-44591Y-2302636D01*
G01X-38241Y-2305684D01*
G01X-35193Y-2308986D01*
G01X-32145Y-2318130D01*
G01X-32145Y-2324480D01*
G01X-35193Y-2333624D01*
G01X-41289Y-2339974D01*
G01X-50687Y-2343022D01*
G01X-60085Y-2343022D01*
G01X-69229Y-2339974D01*
G01X-72277Y-2336672D01*
G01X-75325Y-2330576D01*
G01X16623Y-2277998D02*
G01X7225Y-2281046D01*
G01X1129Y-2290444D01*
G01X-1919Y-2305684D01*
G01X-1919Y-2315082D01*
G01X1129Y-2330576D01*
G01X7225Y-2339974D01*
G01X16623Y-2343022D01*
G01X22719Y-2343022D01*
G01X32117Y-2339974D01*
G01X38213Y-2330576D01*
G01X41261Y-2315082D01*
G01X41261Y-2305684D01*
G01X38213Y-2290444D01*
G01X32117Y-2281046D01*
G01X22719Y-2277998D01*
G01X16623Y-2277998D01*
G01X114667Y-2277998D02*
G01X83679Y-2343022D01*
G01X71487Y-2277998D02*
G01X114667Y-2277998D01*
G01X144893Y-2277998D02*
G01X144893Y-2343022D01*
G01X144893Y-2277998D02*
G01X172579Y-2277998D01*
G01X181977Y-2281046D01*
G01X185025Y-2284094D01*
G01X188073Y-2290444D01*
G01X188073Y-2296540D01*
G01X185025Y-2302636D01*
G01X181977Y-2305684D01*
G01X172579Y-2308986D01*
G01X144893Y-2308986D01*
G01X166483Y-2308986D02*
G01X188073Y-2343022D01*
G01X249033Y-2277998D02*
G01X218299Y-2321178D01*
G01X264527Y-2321178D01*
G01X249033Y-2277998D02*
G01X249033Y-2343022D01*
G01X340981Y-2293492D02*
G01X337933Y-2287142D01*
G01X331837Y-2281046D01*
G01X325487Y-2277998D01*
G01X313295Y-2277998D01*
G01X306945Y-2281046D01*
G01X300849Y-2287142D01*
G01X297801Y-2293492D01*
G01X294753Y-2302636D01*
G01X294753Y-2318130D01*
G01X297801Y-2327528D01*
G01X300849Y-2333624D01*
G01X306945Y-2339974D01*
G01X313295Y-2343022D01*
G01X325487Y-2343022D01*
G01X331837Y-2339974D01*
G01X337933Y-2333624D01*
G01X340981Y-2327528D01*
G01X340981Y-2318130D01*
G01X325487Y-2318130D02*
G01X340981Y-2318130D01*
G01X-1804235Y511902D02*
G01X-1739211Y511902D01*
G01X-1804235Y511902D02*
G01X-1804235Y539842D01*
G01X-1801187Y548986D01*
G01X-1798139Y552034D01*
G01X-1791789Y555336D01*
G01X-1785693Y555336D01*
G01X-1779597Y552034D01*
G01X-1776549Y548986D01*
G01X-1773247Y539842D01*
G01X-1773247Y511902D01*
G01X-1773247Y533492D02*
G01X-1739211Y555336D01*
G01X-1795091Y628742D02*
G01X-1801187Y622646D01*
G01X-1804235Y613248D01*
G01X-1804235Y600802D01*
G01X-1801187Y591658D01*
G01X-1795091Y585562D01*
G01X-1788741Y585562D01*
G01X-1782645Y588610D01*
G01X-1779597Y591658D01*
G01X-1776549Y597754D01*
G01X-1770199Y616296D01*
G01X-1767151Y622646D01*
G01X-1764103Y625694D01*
G01X-1757753Y628742D01*
G01X-1748609Y628742D01*
G01X-1742259Y622646D01*
G01X-1739211Y613248D01*
G01X-1739211Y600802D01*
G01X-1742259Y591658D01*
G01X-1748609Y585562D01*
G01X-1804235Y680558D02*
G01X-1739211Y680558D01*
G01X-1804235Y658968D02*
G01X-1804235Y702148D01*
G01X1793366Y857716D02*
G01X1858390Y857716D01*
G01X1808860Y890990D02*
G01X1805812Y890990D01*
G01X1799462Y894038D01*
G01X1796414Y897086D01*
G01X1793366Y903182D01*
G01X1793366Y915628D01*
G01X1796414Y921978D01*
G01X1799462Y925026D01*
G01X1805812Y928074D01*
G01X1811908Y928074D01*
G01X1818004Y925026D01*
G01X1827402Y918676D01*
G01X1858390Y887942D01*
G01X1858390Y931122D01*
G01X1808860Y1007576D02*
G01X1802510Y1004528D01*
G01X1796414Y998432D01*
G01X1793366Y992082D01*
G01X1793366Y979890D01*
G01X1796414Y973540D01*
G01X1802510Y967444D01*
G01X1808860Y964396D01*
G01X1818004Y961348D01*
G01X1833498Y961348D01*
G01X1842896Y964396D01*
G01X1848992Y967444D01*
G01X1855342Y973540D01*
G01X1858390Y979890D01*
G01X1858390Y992082D01*
G01X1855342Y998432D01*
G01X1848992Y1004528D01*
G01X1842896Y1007576D01*
G01X-1089934Y-3950963D02*
G01X-1089934Y-4015987D01*
G01X-1046500Y-3950963D02*
G01X-1046500Y-4015987D01*
G01X-1089934Y-3981951D02*
G01X-1046500Y-3981951D01*
G01X-1016274Y-3963409D02*
G01X-1010178Y-3960107D01*
G01X-1001034Y-3950963D01*
G01X-1001034Y-4015987D01*
G01X972667Y1186787D02*
G01X972667Y1121763D01*
G01X1016101Y1186787D02*
G01X1016101Y1121763D01*
G01X972667Y1155799D02*
G01X1016101Y1155799D01*
G01X1049375Y1171293D02*
G01X1049375Y1174341D01*
G01X1052423Y1180691D01*
G01X1055471Y1183739D01*
G01X1061567Y1186787D01*
G01X1074013Y1186787D01*
G01X1080363Y1183739D01*
G01X1083411Y1180691D01*
G01X1086459Y1174341D01*
G01X1086459Y1168245D01*
G01X1083411Y1162149D01*
G01X1077061Y1152751D01*
G01X1046327Y1121763D01*
G01X1089507Y1121763D01*
G01X-332994Y4007781D02*
G01X-339344Y4013877D01*
G01X-348488Y4016925D01*
G01X-360934Y4016925D01*
G01X-370332Y4013877D01*
G01X-376428Y4007781D01*
G01X-376428Y4001431D01*
G01X-373380Y3995335D01*
G01X-370332Y3992287D01*
G01X-363982Y3989239D01*
G01X-345440Y3982889D01*
G01X-339344Y3979841D01*
G01X-336296Y3976793D01*
G01X-332994Y3970443D01*
G01X-332994Y3961299D01*
G01X-339344Y3954949D01*
G01X-348488Y3951901D01*
G01X-360934Y3951901D01*
G01X-370332Y3954949D01*
G01X-376428Y3961299D01*
G01X-259588Y4007781D02*
G01X-265684Y4013877D01*
G01X-275082Y4016925D01*
G01X-287528Y4016925D01*
G01X-296672Y4013877D01*
G01X-302768Y4007781D01*
G01X-302768Y4001431D01*
G01X-299720Y3995335D01*
G01X-296672Y3992287D01*
G01X-290576Y3989239D01*
G01X-272034Y3982889D01*
G01X-265684Y3979841D01*
G01X-262636Y3976793D01*
G01X-259588Y3970443D01*
G01X-259588Y3961299D01*
G01X-265684Y3954949D01*
G01X-275082Y3951901D01*
G01X-287528Y3951901D01*
G01X-296672Y3954949D01*
G01X-302768Y3961299D01*
G01X-229362Y4016925D02*
G01X-229362Y3951901D01*
G01X-229362Y4016925D02*
G01X-207772Y4016925D01*
G01X-198628Y4013877D01*
G01X-192278Y4007781D01*
G01X-189230Y4001431D01*
G01X-186182Y3992287D01*
G01X-186182Y3976793D01*
G01X-189230Y3967395D01*
G01X-192278Y3961299D01*
G01X-198628Y3954949D01*
G01X-207772Y3951901D01*
G01X-229362Y3951901D01*
G01X-155956Y4004479D02*
G01X-149860Y4007781D01*
G01X-140716Y4016925D01*
G01X-140716Y3951901D01*
G01X-104394Y4016925D02*
G01X-70358Y4016925D01*
G01X-88900Y3992287D01*
G01X-79756Y3992287D01*
G01X-73406Y3989239D01*
G01X-70358Y3985937D01*
G01X-67310Y3976793D01*
G01X-67310Y3970443D01*
G01X-70358Y3961299D01*
G01X-76454Y3954949D01*
G01X-85852Y3951901D01*
G01X-95250Y3951901D01*
G01X-104394Y3954949D01*
G01X-107442Y3958251D01*
G01X-110490Y3964347D01*
G01X-18542Y4016925D02*
G01X-27940Y4013877D01*
G01X-34036Y4004479D01*
G01X-37084Y3989239D01*
G01X-37084Y3979841D01*
G01X-34036Y3964347D01*
G01X-27940Y3954949D01*
G01X-18542Y3951901D01*
G01X-12446Y3951901D01*
G01X-3048Y3954949D01*
G01X3048Y3964347D01*
G01X6096Y3979841D01*
G01X6096Y3989239D01*
G01X3048Y4004479D01*
G01X-3048Y4013877D01*
G01X-12446Y4016925D01*
G01X-18542Y4016925D01*
G01X73406Y4007781D02*
G01X70358Y4013877D01*
G01X60960Y4016925D01*
G01X54864Y4016925D01*
G01X45466Y4013877D01*
G01X39370Y4004479D01*
G01X36322Y3989239D01*
G01X36322Y3973745D01*
G01X39370Y3961299D01*
G01X45466Y3954949D01*
G01X54864Y3951901D01*
G01X57912Y3951901D01*
G01X67056Y3954949D01*
G01X73406Y3961299D01*
G01X76454Y3970443D01*
G01X76454Y3973745D01*
G01X73406Y3982889D01*
G01X67056Y3989239D01*
G01X57912Y3992287D01*
G01X54864Y3992287D01*
G01X45466Y3989239D01*
G01X39370Y3982889D01*
G01X36322Y3973745D01*
G01X106680Y3979841D02*
G01X162306Y3979841D01*
G01X211074Y4016925D02*
G01X201676Y4013877D01*
G01X195580Y4004479D01*
G01X192532Y3989239D01*
G01X192532Y3979841D01*
G01X195580Y3964347D01*
G01X201676Y3954949D01*
G01X211074Y3951901D01*
G01X217170Y3951901D01*
G01X226568Y3954949D01*
G01X232664Y3964347D01*
G01X235712Y3979841D01*
G01X235712Y3989239D01*
G01X232664Y4004479D01*
G01X226568Y4013877D01*
G01X217170Y4016925D01*
G01X211074Y4016925D01*
G01X306070Y3995335D02*
G01X303022Y3985937D01*
G01X296672Y3979841D01*
G01X287528Y3976793D01*
G01X284480Y3976793D01*
G01X275082Y3979841D01*
G01X268986Y3985937D01*
G01X265938Y3995335D01*
G01X265938Y3998383D01*
G01X268986Y4007781D01*
G01X275082Y4013877D01*
G01X284480Y4016925D01*
G01X287528Y4016925D01*
G01X296672Y4013877D01*
G01X303022Y4007781D01*
G01X306070Y3995335D01*
G01X306070Y3979841D01*
G01X303022Y3964347D01*
G01X296672Y3954949D01*
G01X287528Y3951901D01*
G01X281178Y3951901D01*
G01X272034Y3954949D01*
G01X268986Y3961299D01*
G01X373380Y4007781D02*
G01X370332Y4013877D01*
G01X360934Y4016925D01*
G01X354838Y4016925D01*
G01X345440Y4013877D01*
G01X339344Y4004479D01*
G01X336296Y3989239D01*
G01X336296Y3973745D01*
G01X339344Y3961299D01*
G01X345440Y3954949D01*
G01X354838Y3951901D01*
G01X357886Y3951901D01*
G01X367030Y3954949D01*
G01X373380Y3961299D01*
G01X376428Y3970443D01*
G01X376428Y3973745D01*
G01X373380Y3982889D01*
G01X367030Y3989239D01*
G01X357886Y3992287D01*
G01X354838Y3992287D01*
G01X345440Y3989239D01*
G01X339344Y3982889D01*
G01X336296Y3973745D01*
G01X-198080Y-4241143D02*
G01X-198080Y-4306167D01*
G01X-167854Y-4241143D02*
G01X-167854Y-4306167D01*
G01X-167854Y-4241143D02*
G01X-124674Y-4306167D01*
G01X-124674Y-4241143D02*
G01X-124674Y-4306167D01*
G01X-94448Y-4241143D02*
G01X-94448Y-4306167D01*
G01X-94448Y-4241143D02*
G01X-69810Y-4306167D01*
G01X-44918Y-4241143D02*
G01X-69810Y-4306167D01*
G01X-44918Y-4241143D02*
G01X-44918Y-4306167D01*
G01X-14692Y-4241143D02*
G01X-14692Y-4306167D01*
G01X-14692Y-4241143D02*
G01X12994Y-4241143D01*
G01X22392Y-4244191D01*
G01X25440Y-4247239D01*
G01X28488Y-4253589D01*
G01X28488Y-4262733D01*
G01X25440Y-4268829D01*
G01X22392Y-4272131D01*
G01X12994Y-4275179D01*
G01X-14692Y-4275179D01*
G01X89448Y-4241143D02*
G01X58714Y-4284323D01*
G01X104942Y-4284323D01*
G01X89448Y-4241143D02*
G01X89448Y-4306167D01*
G01X165902Y-4241143D02*
G01X135168Y-4284323D01*
G01X181396Y-4284323D01*
G01X165902Y-4241143D02*
G01X165902Y-4306167D01*
G01X211622Y-4253589D02*
G01X217718Y-4250287D01*
G01X226862Y-4241143D01*
G01X226862Y-4306167D01*
G54D15*
G01X-653272Y511777D02*
G01X-653272Y379951D01*
G01X-653272Y511777D02*
G01X-602980Y379951D01*
G01X-552942Y511777D02*
G01X-602980Y379951D01*
G01X-552942Y511777D02*
G01X-552942Y379951D01*
G01X-452358Y511777D02*
G01X-502396Y379951D01*
G01X-452358Y511777D02*
G01X-402066Y379951D01*
G01X-483600Y423893D02*
G01X-420862Y423893D01*
G01X-351520Y511777D02*
G01X-263636Y379951D01*
G01X-263636Y511777D02*
G01X-351520Y379951D01*
G01X-131556Y467835D02*
G01X-137906Y449039D01*
G01X-150352Y436339D01*
G01X-169148Y430243D01*
G01X-175498Y430243D01*
G01X-194294Y436339D01*
G01X-206994Y449039D01*
G01X-213090Y467835D01*
G01X-213090Y474185D01*
G01X-206994Y492981D01*
G01X-194294Y505427D01*
G01X-175498Y511777D01*
G01X-169148Y511777D01*
G01X-150352Y505427D01*
G01X-137906Y492981D01*
G01X-131556Y467835D01*
G01X-131556Y436339D01*
G01X-137906Y405097D01*
G01X-150352Y386301D01*
G01X-169148Y379951D01*
G01X-181848Y379951D01*
G01X-200644Y386301D01*
G01X-206994Y398747D01*
G01X-49768Y511777D02*
G01X-68564Y505427D01*
G01X-74914Y492981D01*
G01X-74914Y480281D01*
G01X-68564Y467835D01*
G01X-56118Y461485D01*
G01X-30972Y455389D01*
G01X-12176Y449039D01*
G01X524Y436339D01*
G01X6874Y423893D01*
G01X6874Y405097D01*
G01X524Y392397D01*
G01X-5826Y386301D01*
G01X-24622Y379951D01*
G01X-49768Y379951D01*
G01X-68564Y386301D01*
G01X-74914Y392397D01*
G01X-81010Y405097D01*
G01X-81010Y423893D01*
G01X-74914Y436339D01*
G01X-62214Y449039D01*
G01X-43418Y455389D01*
G01X-18272Y461485D01*
G01X-5826Y467835D01*
G01X524Y480281D01*
G01X524Y492981D01*
G01X-5826Y505427D01*
G01X-24622Y511777D01*
G01X-49768Y511777D01*
G01X69866Y511777D02*
G01X138954Y511777D01*
G01X101362Y461485D01*
G01X120158Y461485D01*
G01X132604Y455389D01*
G01X138954Y449039D01*
G01X145304Y430243D01*
G01X145304Y417543D01*
G01X138954Y398747D01*
G01X126254Y386301D01*
G01X107458Y379951D01*
G01X88662Y379951D01*
G01X69866Y386301D01*
G01X63516Y392397D01*
G01X57420Y405097D01*
G01X271034Y511777D02*
G01X208296Y511777D01*
G01X201946Y455389D01*
G01X208296Y461485D01*
G01X227092Y467835D01*
G01X245888Y467835D01*
G01X264684Y461485D01*
G01X277384Y449039D01*
G01X283734Y430243D01*
G01X283734Y417543D01*
G01X277384Y398747D01*
G01X264684Y386301D01*
G01X245888Y379951D01*
G01X227092Y379951D01*
G01X208296Y386301D01*
G01X201946Y392397D01*
G01X195850Y405097D01*
G01X422164Y511777D02*
G01X359172Y379951D01*
G01X334280Y511777D02*
G01X422164Y511777D01*
G01X522748Y511777D02*
G01X472710Y379951D01*
G01X522748Y511777D02*
G01X573040Y379951D01*
G01X491506Y423893D02*
G01X554244Y423893D01*
G01X-806942Y181577D02*
G01X-806942Y49751D01*
G01X-750300Y150081D02*
G01X-750300Y156431D01*
G01X-743950Y169131D01*
G01X-737600Y175227D01*
G01X-725154Y181577D01*
G01X-700008Y181577D01*
G01X-687562Y175227D01*
G01X-681212Y169131D01*
G01X-674862Y156431D01*
G01X-674862Y143985D01*
G01X-681212Y131285D01*
G01X-693658Y112489D01*
G01X-756396Y49751D01*
G01X-668512Y49751D01*
G01X-530082Y162781D02*
G01X-542782Y175227D01*
G01X-561578Y181577D01*
G01X-586724Y181577D01*
G01X-605520Y175227D01*
G01X-617966Y162781D01*
G01X-617966Y150081D01*
G01X-611870Y137635D01*
G01X-605520Y131285D01*
G01X-593074Y125189D01*
G01X-555228Y112489D01*
G01X-542782Y106139D01*
G01X-536432Y100043D01*
G01X-530082Y87343D01*
G01X-530082Y68547D01*
G01X-542782Y56101D01*
G01X-561578Y49751D01*
G01X-586724Y49751D01*
G01X-605520Y56101D01*
G01X-617966Y68547D01*
G01X-339074Y181577D02*
G01X-339074Y49751D01*
G01X-339074Y181577D02*
G01X-288782Y49751D01*
G01X-238490Y181577D02*
G01X-288782Y49751D01*
G01X-238490Y181577D02*
G01X-238490Y49751D01*
G01X-156702Y137635D02*
G01X-169148Y131285D01*
G01X-181848Y118839D01*
G01X-187944Y100043D01*
G01X-187944Y87343D01*
G01X-181848Y68547D01*
G01X-169148Y56101D01*
G01X-156702Y49751D01*
G01X-137906Y49751D01*
G01X-125206Y56101D01*
G01X-112760Y68547D01*
G01X-106410Y87343D01*
G01X-106410Y100043D01*
G01X-112760Y118839D01*
G01X-125206Y131285D01*
G01X-137906Y137635D01*
G01X-156702Y137635D01*
G01X-55864Y137635D02*
G01X-55864Y49751D01*
G01X-55864Y112489D02*
G01X-37068Y131285D01*
G01X-24622Y137635D01*
G01X-5826Y137635D01*
G01X6874Y131285D01*
G01X12970Y112489D01*
G01X12970Y49751D01*
G01X94758Y137635D02*
G01X82312Y131285D01*
G01X69612Y118839D01*
G01X63516Y100043D01*
G01X63516Y87343D01*
G01X69612Y68547D01*
G01X82312Y56101D01*
G01X94758Y49751D01*
G01X113554Y49751D01*
G01X126254Y56101D01*
G01X138700Y68547D01*
G01X145050Y87343D01*
G01X145050Y100043D01*
G01X138700Y118839D01*
G01X126254Y131285D01*
G01X113554Y137635D01*
G01X94758Y137635D01*
G01X386350Y181577D02*
G01X336058Y49751D01*
G01X386350Y181577D02*
G01X436642Y49751D01*
G01X354854Y93693D02*
G01X417592Y93693D01*
G01X487188Y137635D02*
G01X487188Y49751D01*
G01X487188Y112489D02*
G01X505984Y131285D01*
G01X518430Y137635D01*
G01X537226Y137635D01*
G01X549926Y131285D01*
G01X556022Y112489D01*
G01X556022Y49751D01*
G01X556022Y112489D02*
G01X575072Y131285D01*
G01X587518Y137635D01*
G01X606314Y137635D01*
G01X619014Y131285D01*
G01X625110Y112489D01*
G01X625110Y49751D01*
G01X675656Y137635D02*
G01X675656Y5809D01*
G01X675656Y118839D02*
G01X688102Y131285D01*
G01X700548Y137635D01*
G01X719598Y137635D01*
G01X732044Y131285D01*
G01X744490Y118839D01*
G01X750840Y100043D01*
G01X750840Y87343D01*
G01X744490Y68547D01*
G01X732044Y56101D01*
G01X719598Y49751D01*
G01X700548Y49751D01*
G01X688102Y56101D01*
G01X675656Y68547D01*
G54D14*
G01X-277394Y-313286D02*
G01X-277394Y-378310D01*
G01X-277394Y-313286D02*
G01X-252502Y-378310D01*
G01X-227864Y-313286D02*
G01X-252502Y-378310D01*
G01X-227864Y-313286D02*
G01X-227864Y-378310D01*
G01X-173000Y-313286D02*
G01X-197638Y-378310D01*
G01X-173000Y-313286D02*
G01X-148108Y-378310D01*
G01X-188494Y-356466D02*
G01X-157506Y-356466D01*
G01X-117882Y-313286D02*
G01X-74702Y-378310D01*
G01X-74702Y-313286D02*
G01X-117882Y-378310D01*
G01X-4344Y-334876D02*
G01X-7392Y-344274D01*
G01X-13742Y-350370D01*
G01X-22886Y-353418D01*
G01X-25934Y-353418D01*
G01X-35332Y-350370D01*
G01X-41428Y-344274D01*
G01X-44476Y-334876D01*
G01X-44476Y-331828D01*
G01X-41428Y-322430D01*
G01X-35332Y-316334D01*
G01X-25934Y-313286D01*
G01X-22886Y-313286D01*
G01X-13742Y-316334D01*
G01X-7392Y-322430D01*
G01X-4344Y-334876D01*
G01X-4344Y-350370D01*
G01X-7392Y-365864D01*
G01X-13742Y-375262D01*
G01X-22886Y-378310D01*
G01X-29236Y-378310D01*
G01X-38380Y-375262D01*
G01X-41428Y-368912D01*
G01X41122Y-313286D02*
G01X31978Y-316334D01*
G01X28930Y-322430D01*
G01X28930Y-328780D01*
G01X31978Y-334876D01*
G01X38074Y-337924D01*
G01X50520Y-340972D01*
G01X59918Y-344274D01*
G01X66014Y-350370D01*
G01X69062Y-356466D01*
G01X69062Y-365864D01*
G01X66014Y-371960D01*
G01X62966Y-375262D01*
G01X53568Y-378310D01*
G01X41122Y-378310D01*
G01X31978Y-375262D01*
G01X28930Y-371960D01*
G01X25882Y-365864D01*
G01X25882Y-356466D01*
G01X28930Y-350370D01*
G01X35026Y-344274D01*
G01X44424Y-340972D01*
G01X56616Y-337924D01*
G01X62966Y-334876D01*
G01X66014Y-328780D01*
G01X66014Y-322430D01*
G01X62966Y-316334D01*
G01X53568Y-313286D01*
G01X41122Y-313286D01*
G01X105384Y-313286D02*
G01X139420Y-313286D01*
G01X120878Y-337924D01*
G01X130022Y-337924D01*
G01X136372Y-340972D01*
G01X139420Y-344274D01*
G01X142468Y-353418D01*
G01X142468Y-359768D01*
G01X139420Y-368912D01*
G01X133324Y-375262D01*
G01X123926Y-378310D01*
G01X114528Y-378310D01*
G01X105384Y-375262D01*
G01X102336Y-371960D01*
G01X99288Y-365864D01*
G01X209778Y-313286D02*
G01X178790Y-313286D01*
G01X175742Y-340972D01*
G01X178790Y-337924D01*
G01X187934Y-334876D01*
G01X197332Y-334876D01*
G01X206730Y-337924D01*
G01X212826Y-344274D01*
G01X215874Y-353418D01*
G01X215874Y-359768D01*
G01X212826Y-368912D01*
G01X206730Y-375262D01*
G01X197332Y-378310D01*
G01X187934Y-378310D01*
G01X178790Y-375262D01*
G01X175742Y-371960D01*
G01X172694Y-365864D01*
G01X289280Y-313286D02*
G01X258292Y-378310D01*
G01X246100Y-313286D02*
G01X289280Y-313286D01*
G01X1857710Y-2248380D02*
G01X1857710Y-2313404D01*
G01X1857710Y-2248380D02*
G01X1885650Y-2248380D01*
G01X1894794Y-2251428D01*
G01X1897842Y-2254476D01*
G01X1901144Y-2260826D01*
G01X1901144Y-2269970D01*
G01X1897842Y-2276066D01*
G01X1894794Y-2279368D01*
G01X1885650Y-2282416D01*
G01X1857710Y-2282416D01*
G01X1949912Y-2248380D02*
G01X1943562Y-2251428D01*
G01X1937466Y-2257524D01*
G01X1934418Y-2263874D01*
G01X1931370Y-2273018D01*
G01X1931370Y-2288512D01*
G01X1934418Y-2297910D01*
G01X1937466Y-2304006D01*
G01X1943562Y-2310356D01*
G01X1949912Y-2313404D01*
G01X1962104Y-2313404D01*
G01X1968454Y-2310356D01*
G01X1974550Y-2304006D01*
G01X1977598Y-2297910D01*
G01X1980900Y-2288512D01*
G01X1980900Y-2273018D01*
G01X1977598Y-2263874D01*
G01X1974550Y-2257524D01*
G01X1968454Y-2251428D01*
G01X1962104Y-2248380D01*
G01X1949912Y-2248380D01*
G01X2011126Y-2248380D02*
G01X2026366Y-2313404D01*
G01X2041860Y-2248380D02*
G01X2026366Y-2313404D01*
G01X2041860Y-2248380D02*
G01X2057354Y-2313404D01*
G01X2072848Y-2248380D02*
G01X2057354Y-2313404D01*
G54D12*
G01X-458837Y7895263D02*
G01X-470013Y7889675D01*
G01X-481189Y7878499D01*
G01X-486777Y7867323D01*
G01X-492619Y7850305D01*
G01X-492619Y7822365D01*
G01X-486777Y7805347D01*
G01X-481189Y7794171D01*
G01X-470013Y7782995D01*
G01X-458837Y7777153D01*
G01X-436231Y7777153D01*
G01X-425055Y7782995D01*
G01X-413879Y7794171D01*
G01X-408037Y7805347D01*
G01X-402449Y7822365D01*
G01X-402449Y7850305D01*
G01X-408037Y7867323D01*
G01X-413879Y7878499D01*
G01X-425055Y7889675D01*
G01X-436231Y7895263D01*
G01X-458837Y7895263D01*
G01X-355459Y7895263D02*
G01X-355459Y7777153D01*
G01X-355459Y7777153D02*
G01X-287895Y7777153D01*
G01X-240905Y7895263D02*
G01X-240905Y7777153D01*
G01X-240905Y7895263D02*
G01X-167753Y7895263D01*
G01X-240905Y7839129D02*
G01X-195947Y7839129D01*
G01X-240905Y7777153D02*
G01X-167753Y7777153D01*
G01X-120763Y7895263D02*
G01X-120763Y7777153D01*
G01X-120763Y7895263D02*
G01X-81393Y7895263D01*
G01X-64629Y7889675D01*
G01X-53199Y7878499D01*
G01X-47611Y7867323D01*
G01X-42023Y7850305D01*
G01X-42023Y7822365D01*
G01X-47611Y7805347D01*
G01X-53199Y7794171D01*
G01X-64629Y7782995D01*
G01X-81393Y7777153D01*
G01X-120763Y7777153D01*
G01X4967Y7827953D02*
G01X106313Y7827953D01*
G01X187085Y7895263D02*
G01X170067Y7889675D01*
G01X158891Y7872911D01*
G01X153303Y7844717D01*
G01X153303Y7827953D01*
G01X158891Y7799759D01*
G01X170067Y7782995D01*
G01X187085Y7777153D01*
G01X198261Y7777153D01*
G01X215279Y7782995D01*
G01X226455Y7799759D01*
G01X232043Y7827953D01*
G01X232043Y7844717D01*
G01X226455Y7872911D01*
G01X215279Y7889675D01*
G01X198261Y7895263D01*
G01X187085Y7895263D01*
G01X284621Y7805347D02*
G01X279033Y7799759D01*
G01X284621Y7794171D01*
G01X290209Y7799759D01*
G01X284621Y7805347D01*
G01X410351Y7855893D02*
G01X404763Y7839129D01*
G01X393333Y7827953D01*
G01X376569Y7822365D01*
G01X370981Y7822365D01*
G01X353963Y7827953D01*
G01X342787Y7839129D01*
G01X337199Y7855893D01*
G01X337199Y7861735D01*
G01X342787Y7878499D01*
G01X353963Y7889675D01*
G01X370981Y7895263D01*
G01X376569Y7895263D01*
G01X393333Y7889675D01*
G01X404763Y7878499D01*
G01X410351Y7855893D01*
G01X410351Y7827953D01*
G01X404763Y7799759D01*
G01X393333Y7782995D01*
G01X376569Y7777153D01*
G01X365393Y7777153D01*
G01X348375Y7782995D01*
G01X342787Y7794171D01*
G01X524905Y7878499D02*
G01X519317Y7889675D01*
G01X502299Y7895263D01*
G01X491123Y7895263D01*
G01X474105Y7889675D01*
G01X462929Y7872911D01*
G01X457341Y7844717D01*
G01X457341Y7816523D01*
G01X462929Y7794171D01*
G01X474105Y7782995D01*
G01X491123Y7777153D01*
G01X496711Y7777153D01*
G01X513475Y7782995D01*
G01X524905Y7794171D01*
G01X530493Y7810935D01*
G01X530493Y7816523D01*
G01X524905Y7833541D01*
G01X513475Y7844717D01*
G01X496711Y7850305D01*
G01X491123Y7850305D01*
G01X474105Y7844717D01*
G01X462929Y7833541D01*
G01X457341Y7816523D01*
G54D14*
G01X-1735171Y2679452D02*
G01X-1741267Y2673102D01*
G01X-1744315Y2663958D01*
G01X-1744315Y2651512D01*
G01X-1741267Y2642114D01*
G01X-1735171Y2636018D01*
G01X-1728821Y2636018D01*
G01X-1722725Y2639066D01*
G01X-1719677Y2642114D01*
G01X-1716629Y2648464D01*
G01X-1710279Y2667006D01*
G01X-1707231Y2673102D01*
G01X-1704183Y2676150D01*
G01X-1697833Y2679452D01*
G01X-1688689Y2679452D01*
G01X-1682339Y2673102D01*
G01X-1679291Y2663958D01*
G01X-1679291Y2651512D01*
G01X-1682339Y2642114D01*
G01X-1688689Y2636018D01*
G01X-1735171Y2752858D02*
G01X-1741267Y2746762D01*
G01X-1744315Y2737364D01*
G01X-1744315Y2724918D01*
G01X-1741267Y2715774D01*
G01X-1735171Y2709678D01*
G01X-1728821Y2709678D01*
G01X-1722725Y2712726D01*
G01X-1719677Y2715774D01*
G01X-1716629Y2721870D01*
G01X-1710279Y2740412D01*
G01X-1707231Y2746762D01*
G01X-1704183Y2749810D01*
G01X-1697833Y2752858D01*
G01X-1688689Y2752858D01*
G01X-1682339Y2746762D01*
G01X-1679291Y2737364D01*
G01X-1679291Y2724918D01*
G01X-1682339Y2715774D01*
G01X-1688689Y2709678D01*
G01X-1744315Y2783084D02*
G01X-1679291Y2783084D01*
G01X-1744315Y2783084D02*
G01X-1744315Y2804674D01*
G01X-1741267Y2813818D01*
G01X-1735171Y2820168D01*
G01X-1728821Y2823216D01*
G01X-1719677Y2826264D01*
G01X-1704183Y2826264D01*
G01X-1694785Y2823216D01*
G01X-1688689Y2820168D01*
G01X-1682339Y2813818D01*
G01X-1679291Y2804674D01*
G01X-1679291Y2783084D01*
G01X-1731869Y2856490D02*
G01X-1735171Y2862586D01*
G01X-1744315Y2871730D01*
G01X-1679291Y2871730D01*
G01X-1744315Y2908052D02*
G01X-1744315Y2942088D01*
G01X-1719677Y2923546D01*
G01X-1719677Y2932690D01*
G01X-1716629Y2939040D01*
G01X-1713327Y2942088D01*
G01X-1704183Y2945136D01*
G01X-1697833Y2945136D01*
G01X-1688689Y2942088D01*
G01X-1682339Y2935992D01*
G01X-1679291Y2926594D01*
G01X-1679291Y2917196D01*
G01X-1682339Y2908052D01*
G01X-1685641Y2905004D01*
G01X-1691737Y2901956D01*
G01X-1744315Y2993904D02*
G01X-1741267Y2984506D01*
G01X-1731869Y2978410D01*
G01X-1716629Y2975362D01*
G01X-1707231Y2975362D01*
G01X-1691737Y2978410D01*
G01X-1682339Y2984506D01*
G01X-1679291Y2993904D01*
G01X-1679291Y3000000D01*
G01X-1682339Y3009398D01*
G01X-1691737Y3015494D01*
G01X-1707231Y3018542D01*
G01X-1716629Y3018542D01*
G01X-1731869Y3015494D01*
G01X-1741267Y3009398D01*
G01X-1744315Y3000000D01*
G01X-1744315Y2993904D01*
G01X-1735171Y3085852D02*
G01X-1741267Y3082804D01*
G01X-1744315Y3073406D01*
G01X-1744315Y3067310D01*
G01X-1741267Y3057912D01*
G01X-1731869Y3051816D01*
G01X-1716629Y3048768D01*
G01X-1701135Y3048768D01*
G01X-1688689Y3051816D01*
G01X-1682339Y3057912D01*
G01X-1679291Y3067310D01*
G01X-1679291Y3070358D01*
G01X-1682339Y3079502D01*
G01X-1688689Y3085852D01*
G01X-1697833Y3088900D01*
G01X-1701135Y3088900D01*
G01X-1710279Y3085852D01*
G01X-1716629Y3079502D01*
G01X-1719677Y3070358D01*
G01X-1719677Y3067310D01*
G01X-1716629Y3057912D01*
G01X-1710279Y3051816D01*
G01X-1701135Y3048768D01*
G01X-1707231Y3119126D02*
G01X-1707231Y3174752D01*
G01X-1744315Y3223520D02*
G01X-1741267Y3214122D01*
G01X-1731869Y3208026D01*
G01X-1716629Y3204978D01*
G01X-1707231Y3204978D01*
G01X-1691737Y3208026D01*
G01X-1682339Y3214122D01*
G01X-1679291Y3223520D01*
G01X-1679291Y3229616D01*
G01X-1682339Y3239014D01*
G01X-1691737Y3245110D01*
G01X-1707231Y3248158D01*
G01X-1716629Y3248158D01*
G01X-1731869Y3245110D01*
G01X-1741267Y3239014D01*
G01X-1744315Y3229616D01*
G01X-1744315Y3223520D01*
G01X-1722725Y3318516D02*
G01X-1713327Y3315468D01*
G01X-1707231Y3309118D01*
G01X-1704183Y3299974D01*
G01X-1704183Y3296926D01*
G01X-1707231Y3287528D01*
G01X-1713327Y3281432D01*
G01X-1722725Y3278384D01*
G01X-1725773Y3278384D01*
G01X-1735171Y3281432D01*
G01X-1741267Y3287528D01*
G01X-1744315Y3296926D01*
G01X-1744315Y3299974D01*
G01X-1741267Y3309118D01*
G01X-1735171Y3315468D01*
G01X-1722725Y3318516D01*
G01X-1707231Y3318516D01*
G01X-1691737Y3315468D01*
G01X-1682339Y3309118D01*
G01X-1679291Y3299974D01*
G01X-1679291Y3293624D01*
G01X-1682339Y3284480D01*
G01X-1688689Y3281432D01*
G01X-1731869Y3348742D02*
G01X-1735171Y3354838D01*
G01X-1744315Y3363982D01*
G01X-1679291Y3363982D01*
G01X-1389005Y2065164D02*
G01X-1395355Y2071260D01*
G01X-1404499Y2074308D01*
G01X-1416945Y2074308D01*
G01X-1426343Y2071260D01*
G01X-1432439Y2065164D01*
G01X-1432439Y2058814D01*
G01X-1429391Y2052718D01*
G01X-1426343Y2049670D01*
G01X-1419993Y2046622D01*
G01X-1401451Y2040272D01*
G01X-1395355Y2037224D01*
G01X-1392307Y2034176D01*
G01X-1389005Y2027826D01*
G01X-1389005Y2018682D01*
G01X-1395355Y2012332D01*
G01X-1404499Y2009284D01*
G01X-1416945Y2009284D01*
G01X-1426343Y2012332D01*
G01X-1432439Y2018682D01*
G01X-1358779Y2074308D02*
G01X-1358779Y2009284D01*
G01X-1358779Y2074308D02*
G01X-1331093Y2074308D01*
G01X-1321695Y2071260D01*
G01X-1318647Y2068212D01*
G01X-1315599Y2061862D01*
G01X-1315599Y2052718D01*
G01X-1318647Y2046622D01*
G01X-1321695Y2043320D01*
G01X-1331093Y2040272D01*
G01X-1358779Y2040272D01*
G01X-1285373Y2074308D02*
G01X-1285373Y2009284D01*
G01X-1242193Y2074308D02*
G01X-1285373Y2031128D01*
G01X-1270133Y2046622D02*
G01X-1242193Y2009284D01*
G01X-1211967Y2061862D02*
G01X-1205871Y2065164D01*
G01X-1196727Y2074308D01*
G01X-1196727Y2009284D01*
G01X-1163453Y2024778D02*
G01X-1166501Y2021730D01*
G01X-1163453Y2018682D01*
G01X-1160405Y2021730D01*
G01X-1163453Y2024778D01*
G01X-1127131Y2058814D02*
G01X-1127131Y2061862D01*
G01X-1124083Y2068212D01*
G01X-1121035Y2071260D01*
G01X-1114939Y2074308D01*
G01X-1102493Y2074308D01*
G01X-1096143Y2071260D01*
G01X-1093095Y2068212D01*
G01X-1090047Y2061862D01*
G01X-1090047Y2055766D01*
G01X-1093095Y2049670D01*
G01X-1099445Y2040272D01*
G01X-1130179Y2009284D01*
G01X-1086999Y2009284D01*
G01X-1019689Y2074308D02*
G01X-1050677Y2074308D01*
G01X-1053725Y2046622D01*
G01X-1050677Y2049670D01*
G01X-1041533Y2052718D01*
G01X-1032135Y2052718D01*
G01X-1022737Y2049670D01*
G01X-1016641Y2043320D01*
G01X-1013593Y2034176D01*
G01X-1013593Y2027826D01*
G01X-1016641Y2018682D01*
G01X-1022737Y2012332D01*
G01X-1032135Y2009284D01*
G01X-1041533Y2009284D01*
G01X-1050677Y2012332D01*
G01X-1053725Y2015634D01*
G01X-1056773Y2021730D01*
G01X1819318Y-1737612D02*
G01X1754294Y-1737612D01*
G01X1819318Y-1737612D02*
G01X1819318Y-1765552D01*
G01X1816270Y-1774696D01*
G01X1813222Y-1777744D01*
G01X1806872Y-1781046D01*
G01X1800776Y-1781046D01*
G01X1794680Y-1777744D01*
G01X1791632Y-1774696D01*
G01X1788330Y-1765552D01*
G01X1788330Y-1737612D02*
G01X1788330Y-1765552D01*
G01X1785282Y-1774696D01*
G01X1782234Y-1777744D01*
G01X1776138Y-1781046D01*
G01X1766740Y-1781046D01*
G01X1760644Y-1777744D01*
G01X1757342Y-1774696D01*
G01X1754294Y-1765552D01*
G01X1754294Y-1737612D01*
G01X1819318Y-1829814D02*
G01X1816270Y-1823464D01*
G01X1810174Y-1817368D01*
G01X1803824Y-1814320D01*
G01X1794680Y-1811272D01*
G01X1779186Y-1811272D01*
G01X1769788Y-1814320D01*
G01X1763692Y-1817368D01*
G01X1757342Y-1823464D01*
G01X1754294Y-1829814D01*
G01X1754294Y-1842006D01*
G01X1757342Y-1848356D01*
G01X1763692Y-1854452D01*
G01X1769788Y-1857500D01*
G01X1779186Y-1860802D01*
G01X1794680Y-1860802D01*
G01X1803824Y-1857500D01*
G01X1810174Y-1854452D01*
G01X1816270Y-1848356D01*
G01X1819318Y-1842006D01*
G01X1819318Y-1829814D01*
G01X1819318Y-1909570D02*
G01X1816270Y-1903220D01*
G01X1810174Y-1897124D01*
G01X1803824Y-1894076D01*
G01X1794680Y-1891028D01*
G01X1779186Y-1891028D01*
G01X1769788Y-1894076D01*
G01X1763692Y-1897124D01*
G01X1757342Y-1903220D01*
G01X1754294Y-1909570D01*
G01X1754294Y-1921762D01*
G01X1757342Y-1928112D01*
G01X1763692Y-1934208D01*
G01X1769788Y-1937256D01*
G01X1779186Y-1940558D01*
G01X1794680Y-1940558D01*
G01X1803824Y-1937256D01*
G01X1810174Y-1934208D01*
G01X1816270Y-1928112D01*
G01X1819318Y-1921762D01*
G01X1819318Y-1909570D01*
G01X1819318Y-1992374D02*
G01X1754294Y-1992374D01*
G01X1819318Y-1970784D02*
G01X1819318Y-2013964D01*
G01X1824318Y267393D02*
G01X1759294Y242501D01*
G01X1824318Y217863D02*
G01X1759294Y242501D01*
G01X1824318Y169095D02*
G01X1821270Y175445D01*
G01X1815174Y181541D01*
G01X1808824Y184589D01*
G01X1799680Y187637D01*
G01X1784186Y187637D01*
G01X1774788Y184589D01*
G01X1768692Y181541D01*
G01X1762342Y175445D01*
G01X1759294Y169095D01*
G01X1759294Y156903D01*
G01X1762342Y150553D01*
G01X1768692Y144457D01*
G01X1774788Y141409D01*
G01X1784186Y138107D01*
G01X1799680Y138107D01*
G01X1808824Y141409D01*
G01X1815174Y144457D01*
G01X1821270Y150553D01*
G01X1824318Y156903D01*
G01X1824318Y169095D01*
G01X1824318Y107881D02*
G01X1759294Y107881D01*
G01X1759294Y107881D02*
G01X1759294Y70797D01*
G01X1815174Y12885D02*
G01X1759294Y12885D01*
G01X1787234Y40571D02*
G01X1787234Y-15055D01*
G01X1821818Y-490144D02*
G01X1756794Y-515036D01*
G01X1821818Y-539674D02*
G01X1756794Y-515036D01*
G01X1821818Y-588442D02*
G01X1818770Y-582092D01*
G01X1812674Y-575996D01*
G01X1806324Y-572948D01*
G01X1797180Y-569900D01*
G01X1781686Y-569900D01*
G01X1772288Y-572948D01*
G01X1766192Y-575996D01*
G01X1759842Y-582092D01*
G01X1756794Y-588442D01*
G01X1756794Y-600634D01*
G01X1759842Y-606984D01*
G01X1766192Y-613080D01*
G01X1772288Y-616128D01*
G01X1781686Y-619430D01*
G01X1797180Y-619430D01*
G01X1806324Y-616128D01*
G01X1812674Y-613080D01*
G01X1818770Y-606984D01*
G01X1821818Y-600634D01*
G01X1821818Y-588442D01*
G01X1821818Y-649656D02*
G01X1756794Y-649656D01*
G01X1756794Y-649656D02*
G01X1756794Y-686740D01*
G01X1784734Y-716966D02*
G01X1784734Y-772592D01*
G04 Text End*

G04 PolygonModel Start*
G54D16*
G01X-2348557Y721708D02*
G01X-2348557Y471770D01*
G01X-2158565Y471770D02*
G01X-2348557Y471770D01*
G01X-2158565Y721708D02*
G01X-2348557Y721708D01*
G01X-2158565Y821782D02*
G01X-2158565Y690677D01*
G01X-2158565Y495687D02*
G01X-2158565Y371694D01*
G01X-1868500Y520972D02*
G01X-1868500Y665392D01*
G01X-2158565Y821782D02*
G01X-2002013Y821782D01*
G01X-2158565Y371694D02*
G01X-2008652Y371694D01*
G01X2167000Y854496D02*
G01X1913000Y854496D01*
G01X2167000Y1912497D02*
G01X2167000Y854496D01*
G01X2167000Y1635144D02*
G01X1913000Y1635144D01*
G01X1913000Y1912497D02*
G01X1913000Y854496D01*
G01X2167000Y1912497D02*
G01X1913000Y1912497D01*
G01X-1397000Y-4206019D02*
G01X-1397000Y-3952019D01*
G01X-1397000Y-3952019D02*
G01X-1143000Y-3952019D01*
G01X-1651000Y-4206019D02*
G01X-1651000Y1381981D01*
G01X-1651000Y1381981D02*
G01X-1143000Y1381981D01*
G01X-1143000Y1381981D02*
G01X-1143000Y-4206019D01*
G01X-1143000Y-4206019D02*
G01X-1651000Y-4206019D01*
G01X1397000Y1381981D02*
G01X1397000Y1127981D01*
G01X1397000Y1127981D02*
G01X1143000Y1127981D01*
G01X1651000Y1381981D02*
G01X1651000Y-4206019D01*
G01X1651000Y-4206019D02*
G01X1143000Y-4206019D01*
G01X1143000Y-4206019D02*
G01X1143000Y1381981D01*
G01X1143000Y1381981D02*
G01X1651000Y1381981D01*
G01X529001Y4304680D02*
G01X529001Y4050680D01*
G01X-529001Y4304680D02*
G01X529001Y4304680D01*
G01X-251648Y4304680D02*
G01X-251648Y4050680D01*
G01X-529001Y4050680D02*
G01X529001Y4050680D01*
G01X-529001Y4304680D02*
G01X-529001Y4050680D01*
G01X689050Y-3598174D02*
G03X689050Y-3797181I9950J-99504D01*
G01X-691051Y-3797181D02*
G03X-691051Y-3598174I-9950J99504D01*
G01X691762Y-3597277D02*
G03X-693763Y-3597277I-692762J-100400D01*
G01X-693763Y-3798078D02*
G03X691762Y-3798078I692762J100400D01*
G01X-90443Y-4042399D02*
G03X88443Y-4042399I89443J44721D01*
G01X-1000Y-4097677D02*
G01X-1000Y-4147678D01*
G01X-51000Y-4147678D02*
G01X49000Y-4147678D01*
G54D12*
G01X-420100Y944442D02*
G01X-496300Y944442D01*
G01X456200Y982542D02*
G01X456200Y906342D01*
G01X494300Y944442D02*
G01X418100Y944442D01*
G54D16*
G01X-890000Y588842D02*
G01X-890000Y1223842D01*
G01X-331200Y1350842D02*
G01X316500Y1350842D01*
G01X-331200Y1477842D02*
G01X-331200Y842842D01*
G01X-331200Y842842D02*
G01X329200Y842842D01*
G01X329200Y842842D02*
G01X329200Y1477842D01*
G01X-890000Y-173158D02*
G01X-890000Y588842D01*
G01X888000Y588842D02*
G01X888000Y-173158D01*
G01X659400Y-427158D02*
G01X-636000Y-427158D01*
G01X-636000Y1477842D02*
G01X634000Y1477842D01*
G01X888000Y1223842D02*
G01X888000Y588842D01*
G01X-890000Y-173158D02*
G03X-636000Y-427158I254000J0D01*
G01X634000Y-427158D02*
G03X888000Y-173158I0J254000D01*
G01X-636000Y1477842D02*
G03X-890000Y1223842I0J-254000D01*
G01X888000Y1223842D02*
G03X634000Y1477842I-254000J0D01*
G01X2577596Y-2896927D02*
G01X2177597Y-2896927D01*
G01X2577596Y-3096922D02*
G01X2577596Y-2896927D01*
G01X2177597Y-3096922D02*
G01X2577596Y-3096922D01*
G01X2083746Y-2400139D02*
G01X2177594Y-2400139D01*
G01X1747595Y-2400139D02*
G01X1841445Y-2400139D01*
G01X1747595Y-3260137D02*
G01X1747595Y-2400139D01*
G01X2177597Y-3260137D02*
G01X2177594Y-2400139D01*
G01X2081237Y-3260137D02*
G01X2177597Y-3260137D01*
G01X1747595Y-3260137D02*
G01X1843955Y-3260137D01*
G01X508000Y8327911D02*
G01X508000Y8577911D01*
G01X-508000Y8577911D02*
G01X-508000Y8327909D01*
G01X-508000Y8577911D02*
G01X508000Y8577911D01*
G01X-508000Y8327909D02*
G01X508000Y8327911D01*
G01X-1359916Y8672876D02*
G01X1359916Y8672876D01*
G01X1359916Y8672876D02*
G01X1359916Y5892846D01*
G01X1359916Y5892846D02*
G01X649986Y5892846D01*
G01X649986Y5892846D02*
G01X649986Y6268004D01*
G01X649986Y6268004D02*
G01X-635000Y6268004D01*
G01X-635000Y6268004D02*
G01X-635000Y5892846D01*
G01X-635000Y5892846D02*
G01X-1359916Y5892846D01*
G01X-1359916Y5892846D02*
G01X-1359916Y8672876D01*
G01X-2047000Y3529001D02*
G01X-1793000Y3529001D01*
G01X-2047000Y2470999D02*
G01X-2047000Y3529001D01*
G01X-2047000Y2748352D02*
G01X-1793000Y2748352D01*
G01X-1793000Y2470999D02*
G01X-1793000Y3529001D01*
G01X-2047000Y2470999D02*
G01X-1793000Y2470999D01*
G01X-1000083Y1502483D02*
G01X-1000083Y1963239D01*
G01X-1000083Y1963239D02*
G01X-1448647Y1963239D01*
G01X-1448647Y1963239D02*
G01X-1448647Y1502483D01*
G01X-1448647Y1502483D02*
G01X-1435947Y1502483D01*
G01X-1350669Y1502577D02*
G01X-1440059Y1502577D01*
G01X-1000060Y1502577D02*
G01X-1089443Y1502577D01*
G01X2159297Y-1770487D02*
G01X2476797Y-1770487D01*
G01X2476797Y-1770487D02*
G01X2476797Y-2024487D01*
G01X2476797Y-2024487D02*
G01X2159297Y-2024487D01*
G01X2159297Y-1994373D02*
G01X2159297Y-2126087D01*
G01X2159297Y-2126087D02*
G01X2013042Y-2126087D01*
G01X2019597Y-1668887D02*
G01X2159297Y-1668887D01*
G01X2159297Y-1668887D02*
G01X2159297Y-1800601D01*
G01X1867197Y-1996867D02*
G01X1867197Y-1798107D01*
G01X2159297Y249519D02*
G01X2476797Y249519D01*
G01X2476797Y249519D02*
G01X2476797Y-4481D01*
G01X2476797Y-4481D02*
G01X2159297Y-4481D01*
G01X2159297Y25633D02*
G01X2159297Y-106081D01*
G01X2159297Y-106081D02*
G01X2013042Y-106081D01*
G01X2019597Y351119D02*
G01X2159297Y351119D01*
G01X2159297Y351119D02*
G01X2159297Y219404D01*
G01X1867197Y23139D02*
G01X1867197Y221899D01*
G01X2159297Y-500518D02*
G01X2476797Y-500518D01*
G01X2476797Y-500518D02*
G01X2476797Y-754518D01*
G01X2476797Y-754518D02*
G01X2159297Y-754518D01*
G01X2159297Y-724404D02*
G01X2159297Y-856118D01*
G01X2159297Y-856118D02*
G01X2013042Y-856118D01*
G01X2019597Y-398918D02*
G01X2159297Y-398918D01*
G01X2159297Y-398918D02*
G01X2159297Y-530632D01*
G01X1867197Y-726898D02*
G01X1867197Y-528138D01*

G04 Rect Start*
G54D18*
G01X-951418Y-2630204D02*
G01X572582Y-2630204D01*
G01X572582Y-2884204D01*
G01X-951418Y-2884204D01*
G01X-951418Y-2630204D01*
G01X572500Y-794200D02*
G01X-951500Y-794200D01*
G01X-951500Y-540200D01*
G01X572500Y-540200D01*
G01X572500Y-794200D01*
G01X994616Y-2127186D02*
G01X-405384Y-2127186D01*
G01X-405384Y-927186D01*
G01X994616Y-927186D01*
G01X994616Y-2127186D01*
G54D16*
G01X960000Y-2922200D02*
G01X-960000Y-2922200D01*
G02X-1000000Y-2882200I0J40000D01*
G01X-1000000Y-542200D01*
G02X-960000Y-502200I40000J0D01*
G01X960000Y-502200D01*
G02X1000000Y-542200I0J-40000D01*
G01X1000000Y-2882200D01*
G02X960000Y-2922200I-40000J0D01*
G36*
G01X-51000Y-3997677D02*
G01X-51000Y-3847677D01*
G01X49000Y-3847677D01*
G01X49000Y-3997677D01*
G01X-51000Y-3997677D01*
G37*
G04 Rect End*

G04 Circle Start*
G54D12*
G01X-1250000Y2752502D02*
G03X1250000Y2752502I1250000J0D01*
G03X-1250000Y2752502I-1250000J0D01*
G54D16*
G01X615030Y-2757251D02*
G03X695034Y-2757251I40002J0D01*
G03X615030Y-2757251I-40002J0D01*
G01X682533Y-714651D02*
G03X867542Y-714651I92505J0D01*
G03X682533Y-714651I-92505J0D01*
G01X-1092200Y-4079019D02*
G03X-1066800Y-4079019I12700J0D01*
G03X-1092200Y-4079019I-12700J0D01*
G01X1066800Y1254981D02*
G03X1092200Y1254981I12700J0D01*
G03X1066800Y1254981I-12700J0D01*
G54D19*
G01X-1000Y-3847677D03*
G01X-1000Y-3997678D03*
G54D12*
G01X-533206Y944442D02*
G03X-383194Y944442I75006J0D01*
G03X-533206Y944442I-75006J0D01*
G01X381194Y944442D02*
G03X531206Y944442I75006J0D01*
G03X381194Y944442I-75006J0D01*
G54D16*
G01X-1302004Y8472902D02*
G03X-1048004Y8472902I127000J0D01*
G03X-1302004Y8472902I-127000J0D01*
G01X1048004Y8472902D02*
G03X1302004Y8472902I127000J0D01*
G03X1048004Y8472902I-127000J0D01*
G01X1048004Y6092922D02*
G03X1302004Y6092922I127000J0D01*
G03X1048004Y6092922I-127000J0D01*
G01X-1302004Y6092922D02*
G03X-1048004Y6092922I127000J0D01*
G03X-1302004Y6092922I-127000J0D01*
G04 Circle End*

M02*

